<?xml version="1.0" encoding="utf-8"?>
<!-- Generator: Adobe Illustrator 26.0.1, SVG Export Plug-In . SVG Version: 6.00 Build 0)  -->
<svg version="1.1" id="Слой_1" xmlns="http://www.w3.org/2000/svg" xmlns:xlink="http://www.w3.org/1999/xlink" x="0px" y="0px"
	 viewBox="0 0 967 464" style="enable-background:new 0 0 967 464;" xml:space="preserve">
<style type="text/css">
	.st0{fill-rule:evenodd;clip-rule:evenodd;fill:#AA4090;}
	.st1{fill:#AA4090;}
	.st2{fill-rule:evenodd;clip-rule:evenodd;fill:#A84090;}
	.st3{fill:#5B1B51;}
	.st4{fill-rule:evenodd;clip-rule:evenodd;fill:#6B3D90;}
	.st5{fill-rule:evenodd;clip-rule:evenodd;fill:#8C3F90;}
	.st6{fill-rule:evenodd;clip-rule:evenodd;fill:#713E90;}
	.st7{fill:#753F91;}
	.st8{fill-rule:evenodd;clip-rule:evenodd;fill:#763E90;}
	.st9{fill-rule:evenodd;clip-rule:evenodd;fill:#803E90;}
	.st10{fill-rule:evenodd;clip-rule:evenodd;fill:#693D90;}
	.st11{fill-rule:evenodd;clip-rule:evenodd;fill:#823F90;}
</style>
<path class="st0" d="M178.2,94.9c0,25.9-21,46.9-46.9,46.9c-25.9,0-46.9-21-46.9-46.9c0-25.9,21-46.9,46.9-46.9
	C157.2,48.1,178.2,69.1,178.2,94.9z M141.7,76.4c6.4,2.3,11.1,5.6,10.3,11.9c-0.7,4.7-3.2,6.9-6.2,7.3c4.5,2.3,6.9,6,4.7,12.4
	c-2.8,7.9-9.4,8.5-18.2,6.9l-2.2,8.5l-5.1-1.3l2.1-8.3c-1.3-0.3-2.6-0.6-4.1-1l-2.1,8.5l-5.1-1.3l2.2-8.5l0,0
	c-1.2-0.3-2.3-0.6-3.7-0.9l-6.7-1.6l2.5-5.9c0,0,3.8,1,3.8,0.9c1.5,0.4,2.1-0.6,2.3-1.2l3.4-13.5l2.3-9.7c0.1-1-0.3-2.3-2.3-2.9
	l-3.8-0.9l1.3-5.6l7,1.8c0.6,0.2,1.1,0.3,1.7,0.4c0.5,0.1,1,0.2,1.5,0.3l2.1-8.5l5.1,1.3l-2.1,8.3c1.1,0.4,2.3,0.6,3.5,0.9
	c0.2,0,0.4,0.1,0.6,0.1l2.1-8.2l5.1,1.2L141.7,76.4z M125.4,107.2c4.2,1.1,13.3,3.6,14.8-2.3c1.5-5.9-7.5-8-11.8-8.9
	c-0.5-0.1-0.9-0.2-1.2-0.3l-2.8,11.3C124.7,107,125,107,125.4,107.2z M129.3,90.7c3.5,0.9,11.2,3,12.5-2.4c1.4-5.7-6.7-7.3-10.2-7.9
	c-0.2,0-0.5-0.1-0.7-0.1l-2.5,10.2C128.7,90.5,129,90.6,129.3,90.7z"/>
<path class="st0" d="M554.5,154c0,17.1-13.9,30.9-30.9,30.9c-17.1,0-30.9-13.8-30.9-30.9c0-17.1,13.9-30.9,30.9-30.9
	C540.6,123.1,554.5,137,554.5,154z M530.4,141.8c4.3,1.5,7.3,3.7,6.8,7.8c-0.5,3.1-2.1,4.5-4.1,4.8c3,1.5,4.5,4,3.1,8.2
	c-1.8,5.2-6.2,5.6-12,4.5l-1.5,5.6l-3.4-0.9l1.4-5.5c-0.9-0.2-1.7-0.4-2.7-0.7l-1.4,5.6l-3.4-0.9l1.5-5.6l0,0
	c-0.8-0.2-1.5-0.4-2.4-0.6l-4.4-1.1l1.6-3.9c0,0,2.5,0.7,2.5,0.6c1,0.3,1.4-0.4,1.5-0.8l2.2-8.9l1.5-6.4c0.1-0.7-0.2-1.5-1.5-1.9
	l-2.5-0.6l0.9-3.7l4.6,1.2c0.4,0.1,0.8,0.2,1.1,0.3c0.3,0.1,0.6,0.1,1,0.2l1.4-5.6l3.4,0.9l-1.4,5.5c0.7,0.2,1.5,0.4,2.3,0.6
	c0.1,0,0.3,0.1,0.4,0.1l1.4-5.4l3.4,0.8L530.4,141.8z M519.7,162.1c2.8,0.7,8.8,2.3,9.7-1.5c1-3.9-4.9-5.2-7.8-5.9
	c-0.3-0.1-0.6-0.1-0.8-0.2l-1.8,7.4C519.2,162,519.4,162,519.7,162.1z M522.2,151.3c2.3,0.6,7.4,2,8.3-1.6c0.9-3.8-4.4-4.8-6.7-5.2
	c-0.2,0-0.3-0.1-0.4-0.1l-1.6,6.8C521.8,151.1,522,151.2,522.2,151.3z"/>
<path class="st0" d="M858.1,51.5c0,10.6-8.6,19.1-19.2,19.1c-10.6,0-19.2-8.6-19.2-19.1c0-10.6,8.6-19.1,19.2-19.1
	C849.5,32.4,858.1,40.9,858.1,51.5z M843.2,44c2.6,1,4.5,2.3,4.2,4.8c-0.3,1.9-1.3,2.8-2.5,3c1.9,1,2.8,2.5,1.9,5.1
	c-1.1,3.2-3.8,3.5-7.4,2.8l-0.9,3.5l-2.1-0.5l0.8-3.4c-0.5-0.1-1.1-0.2-1.7-0.4l-0.8,3.5l-2.1-0.5l0.9-3.5c-0.5-0.1-1-0.2-1.5-0.4
	l-2.8-0.7l1-2.4c0,0,1.6,0.4,1.6,0.4c0.6,0.2,0.8-0.2,1-0.5l1.4-5.5l1-3.9c0.1-0.4-0.1-1-1-1.2l-1.6-0.4l0.5-2.3l2.9,0.7
	c0.2,0.1,0.5,0.1,0.7,0.2c0.2,0,0.4,0.1,0.6,0.1l0.8-3.5l2.1,0.5l-0.8,3.4c0.5,0.2,1,0.3,1.4,0.4c0.1,0,0.2,0,0.2,0.1l0.8-3.3
	l2.1,0.5L843.2,44z M836.6,56.5c1.7,0.5,5.4,1.5,6-1c0.6-2.4-3-3.2-4.8-3.6c-0.2,0-0.4-0.1-0.5-0.1l-1.1,4.6
	C836.3,56.4,836.4,56.5,836.6,56.5z M838.2,49.8c1.4,0.4,4.6,1.2,5.1-1c0.6-2.3-2.7-3-4.2-3.2c-0.1,0-0.2,0-0.3-0.1l-1,4.2
	C837.9,49.7,838,49.7,838.2,49.8z"/>
<path class="st0" d="M547.6,58.4c0,6.8-5.5,12.3-12.3,12.3c-6.8,0-12.3-5.5-12.3-12.3s5.5-12.3,12.3-12.3
	C542.1,46.1,547.6,51.6,547.6,58.4z M538,53.5c1.7,0.6,2.9,1.5,2.7,3.1c-0.2,1.2-0.8,1.8-1.6,1.9c1.2,0.6,1.8,1.6,1.2,3.3
	c-0.7,2.1-2.5,2.2-4.8,1.8l-0.6,2.2l-1.3-0.3l0.5-2.2c-0.3-0.1-0.7-0.2-1.1-0.3l-0.5,2.2l-1.3-0.3l0.6-2.2l0,0
	c-0.3-0.1-0.6-0.2-1-0.2l-1.8-0.4l0.7-1.5c0,0,1,0.3,1,0.2c0.4,0.1,0.5-0.2,0.6-0.3l0.9-3.5l0.6-2.5c0-0.3-0.1-0.6-0.6-0.8l-1-0.2
	l0.3-1.5l1.8,0.5c0.1,0,0.3,0.1,0.5,0.1c0.1,0,0.3,0.1,0.4,0.1l0.5-2.2l1.3,0.3l-0.5,2.2c0.3,0.1,0.6,0.2,0.9,0.2c0.1,0,0.1,0,0.2,0
	l0.5-2.1l1.3,0.3L538,53.5z M533.8,61.6c1.1,0.3,3.5,0.9,3.9-0.6c0.4-1.6-2-2.1-3.1-2.3c-0.1,0-0.2-0.1-0.3-0.1l-0.7,3
	C533.6,61.5,533.6,61.6,533.8,61.6z M534.8,57.3c0.9,0.2,2.9,0.8,3.3-0.6c0.4-1.5-1.8-1.9-2.7-2.1c-0.1,0-0.1,0-0.2,0l-0.7,2.7
	C534.6,57.2,534.7,57.3,534.8,57.3z"/>
<path class="st0" d="M64.3,102.3c0,5.3-4.3,9.6-9.6,9.6c-5.3,0-9.6-4.3-9.6-9.6c0-5.3,4.3-9.6,9.6-9.6C60,92.7,64.3,97,64.3,102.3z
	 M56.9,98.5c1.3,0.5,2.3,1.1,2.1,2.4c-0.1,1-0.7,1.4-1.3,1.5c0.9,0.5,1.4,1.2,1,2.5c-0.6,1.6-1.9,1.7-3.7,1.4l-0.4,1.7l-1-0.3
	l0.4-1.7c-0.3-0.1-0.5-0.1-0.8-0.2l-0.4,1.7l-1-0.3l0.4-1.7c-0.2-0.1-0.5-0.1-0.7-0.2l-1.4-0.3l0.5-1.2c0,0,0.8,0.2,0.8,0.2
	c0.3,0.1,0.4-0.1,0.5-0.2l0.7-2.8l0.5-2c0-0.2-0.1-0.5-0.5-0.6l-0.8-0.2l0.3-1.1l1.4,0.4c0.1,0,0.2,0.1,0.4,0.1c0.1,0,0.2,0,0.3,0.1
	l0.4-1.7l1,0.3L55,98c0.2,0.1,0.5,0.1,0.7,0.2c0,0,0.1,0,0.1,0l0.4-1.7l1,0.2L56.9,98.5z M53.6,104.8c0.9,0.2,2.7,0.7,3-0.5
	c0.3-1.2-1.5-1.6-2.4-1.8c-0.1,0-0.2,0-0.3-0.1l-0.6,2.3C53.4,104.7,53.5,104.8,53.6,104.8z M54.3,101.4c0.7,0.2,2.3,0.6,2.6-0.5
	c0.3-1.2-1.4-1.5-2.1-1.6c0,0-0.1,0-0.1,0l-0.5,2.1C54.2,101.4,54.3,101.4,54.3,101.4z"/>
<path class="st1" d="M201.7,191.3c-11.7,0-21.1,9.6-21.1,21.3c0,11.8,9.4,21.3,21.1,21.3s21.1-9.6,21.1-21.3
	C222.8,200.9,213.3,191.3,201.7,191.3z M209.9,223.1h-16.5l1.4-6.7l-2.7,1.9l0.7-3.7l2.8-2l2.8-13.3h5.1l-1.9,9.2l6.7-4.7l-0.8,3.8
	l-6.7,4.6l-1.3,6.4h11.3L209.9,223.1z"/>
<path class="st1" d="M609.8,62.3c-15.2,0-27.5,12.4-27.5,27.7c0,15.3,12.3,27.7,27.5,27.7c15.2,0,27.5-12.4,27.5-27.7
	C637.3,74.7,625,62.3,609.8,62.3z M620.5,103.5H599l1.8-8.7l-3.5,2.4l0.9-4.8l3.7-2.5l3.6-17.3h6.7l-2.5,11.9l8.7-6.1l-1,4.9l-8.7,6
	l-1.7,8.3h14.8L620.5,103.5z"/>
<path class="st1" d="M911.8,137.9c-13.7,0-24.8,11.2-24.8,25c0,13.8,11.1,25,24.8,25c13.7,0,24.8-11.2,24.8-25
	C936.6,149.1,925.5,137.9,911.8,137.9z M921.4,175.1h-19.4l1.6-7.8l-3.2,2.2l0.8-4.3l3.3-2.3l3.2-15.6h6l-2.2,10.7l7.9-5.5l-0.9,4.4
	l-7.9,5.4l-1.6,7.5h13.3L921.4,175.1z"/>
<path class="st1" d="M412.6,0c-12.5,0-22.6,10.3-22.6,23.1c0,12.7,10.1,23.1,22.6,23.1c12.5,0,22.6-10.3,22.6-23.1
	C435.2,10.3,425.1,0,412.6,0z M421.4,34.3h-17.6l1.5-7.2l-2.9,2l0.7-4l3-2.1l3-14.4h5.5l-2,9.9l7.2-5l-0.8,4.1l-7.2,5l-1.4,6.9h12.1
	L421.4,34.3z"/>
<path class="st0" d="M860.5,204.3c0,17.2-13.9,31.2-31.2,31.2c-17.2,0-31.2-13.9-31.2-31.2s13.9-31.2,31.2-31.2
	C846.6,173.2,860.5,187.1,860.5,204.3z M824.3,196.4c-1.1,0-2.3,0-3.4,0c0-0.2,0.9-5.1,1-5.7h10c0.1,0,0.2,0,0.3,0
	c3,0,5.9,0,8.5,1.1c2.3,1,3.9,2.6,4.6,5.4c0.7,2.8,0.3,6.2-0.4,8.9c-1.2,5.1-3.8,9.2-8.8,11.1c-2.5,0.9-5.3,0.9-8.2,0.9
	c-0.3,0-0.6,0-0.9,0H827c-3.3,0-6.6,0-9.9,0l1-5.7c1.1,0,2.3,0,3.4,0c1.1,0,2.3,0,3.4,0c0.5,0,1,0,1.5,0c3.1,0.1,6.3,0.1,8.8-1.6
	c1.7-1.2,2.5-3.2,3-5.5c1.1-4.6,0.8-7.9-4-8.6c-1.5-0.2-3.4-0.2-5.2-0.2c-0.5,0-1,0-1.5,0C826.6,196.4,825.4,196.4,824.3,196.4z
	 M822.2,207.2c-2.9,0-9.6,0-10.1,0c0.1-1,0.8-3.6,1.3-4.3c1-1.4,2.5-1.4,4-1.3c0.1,0,0.2,0,0.3,0h11.4c-0.1,0.6-0.3,1.4-0.5,2.1
	c0,0.1,0,0.2-0.1,0.3c-0.8,3-1.9,3.3-5.2,3.3C823.3,207.2,822.8,207.2,822.2,207.2z"/>
<path class="st0" d="M255.1,130.5c0,13-10.5,23.5-23.5,23.5c-13,0-23.5-10.5-23.5-23.5c0-13,10.5-23.5,23.5-23.5
	C244.6,106.9,255.1,117.5,255.1,130.5z M227.8,124.5c-0.9,0-1.7,0-2.6,0c0-0.2,0.7-3.8,0.7-4.3h7.5c0.1,0,0.2,0,0.3,0
	c2.3,0,4.5,0,6.4,0.8c1.7,0.7,3,2,3.5,4c0.5,2.1,0.2,4.7-0.3,6.7c-0.9,3.9-2.9,6.9-6.7,8.4c-1.9,0.7-4,0.7-6.2,0.7
	c-0.2,0-0.5,0-0.7,0h-0.1c-2.5,0-5,0-7.5,0l0.8-4.3c0.9,0,1.7,0,2.6,0c0.9,0,1.7,0,2.6,0c0.4,0,0.8,0,1.1,0c2.3,0,4.7,0.1,6.7-1.2
	c1.3-0.9,1.9-2.4,2.3-4.2c0.8-3.5,0.6-6-3-6.5c-1.2-0.2-2.6-0.2-3.9-0.1c-0.4,0-0.8,0-1.1,0C229.5,124.5,228.6,124.5,227.8,124.5z
	 M226.2,132.6c-2.2,0-7.3,0-7.6,0c0.1-0.7,0.6-2.7,1-3.3c0.7-1,1.9-1,3-1c0.1,0,0.2,0,0.3,0h8.6c-0.1,0.5-0.2,1.1-0.3,1.6
	c0,0.1,0,0.1-0.1,0.2c-0.6,2.2-1.4,2.5-3.9,2.5C227,132.6,226.7,132.6,226.2,132.6z"/>
<path class="st0" d="M363.6,206.8c0,7.7-6.3,14-14,14c-7.7,0-14-6.3-14-14s6.3-14,14-14C357.3,192.8,363.6,199.1,363.6,206.8z
	 M347.3,203.2c-0.5,0-1,0-1.5,0c0-0.1,0.4-2.3,0.4-2.5h4.5c0.1,0,0.1,0,0.2,0c1.4,0,2.7,0,3.8,0.5c1,0.4,1.8,1.2,2.1,2.4
	c0.3,1.2,0.1,2.8-0.2,4c-0.5,2.3-1.7,4.1-4,5c-1.1,0.4-2.4,0.4-3.7,0.4c-0.1,0-0.3,0-0.4,0h0c-1.5,0-3,0-4.4,0l0.5-2.5
	c0.5,0,1,0,1.5,0c0.5,0,1,0,1.5,0c0.2,0,0.4,0,0.7,0c1.4,0,2.8,0,4-0.7c0.8-0.5,1.1-1.5,1.4-2.5c0.5-2.1,0.4-3.5-1.8-3.9
	c-0.7-0.1-1.5-0.1-2.3-0.1c-0.2,0-0.5,0-0.7,0C348.3,203.2,347.8,203.2,347.3,203.2z M346.4,208.1c-1.3,0-4.3,0-4.5,0
	c0-0.4,0.3-1.6,0.6-1.9c0.4-0.6,1.1-0.6,1.8-0.6c0.1,0,0.1,0,0.2,0h5.1c0,0.3-0.1,0.6-0.2,0.9c0,0,0,0.1,0,0.1
	c-0.3,1.3-0.8,1.5-2.3,1.5C346.8,208.1,346.6,208.1,346.4,208.1z"/>
<path class="st0" d="M601.9,17c0,8.3-6.7,15-15,15c-8.3,0-15-6.7-15-15c0-8.3,6.7-15,15-15C595.2,2.1,601.9,8.8,601.9,17z
	 M577.8,22.1c-0.1,0.2-0.6,0.3-1.1,0.3v0.3h4.3v-0.3c-0.6,0-1-0.1-1.2-0.3c-0.2-0.1-0.3-0.6-0.3-1.1v-2.8h1.2c1.2,0,2.2-0.2,2.9-0.7
	s1.2-1.3,1.2-2.3c0-0.8-0.3-1.5-1-2c-0.7-0.5-1.7-0.8-3-0.8h-4.1v0.3c0.5,0.1,0.9,0.2,1,0.3c0.2,0.1,0.3,0.5,0.3,1v6.7
	C578,21.6,577.9,21.9,577.8,22.1z M580.2,13.2c0.7,0,1.3,0.1,1.7,0.3c0.8,0.3,1.3,1,1.3,1.9c0,1-0.3,1.7-1.1,2.1
	c-0.4,0.2-1,0.3-1.7,0.3h-0.3c0,0-0.1,0-0.1,0c-0.1,0-0.3-0.1-0.4-0.1v-4c0-0.2,0.1-0.3,0.1-0.4C579.8,13.2,579.9,13.2,580.2,13.2
	L580.2,13.2z M586.5,22.1c-0.2,0.2-0.6,0.3-1.3,0.4v0.3h3.6v-0.3c-0.6-0.1-1-0.2-1.1-0.3c-0.2-0.3-0.3-0.8-0.3-1.7v-6.2l4,8.4h0.2
	l4-8.8v7c0,0.7-0.1,1-0.2,1.3c-0.1,0.2-0.6,0.3-1.2,0.3v0.3h4.3v-0.3c-0.6,0-0.9-0.1-1.1-0.3s-0.3-0.6-0.3-1.1v-6.9
	c0-0.5,0.1-0.9,0.3-1c0.1-0.1,0.6-0.2,1.1-0.3v-0.3h-3.1l-3.5,7.7l-3.6-7.7h-3.1v0.3c0.6,0,1,0.1,1.2,0.3c0.2,0.2,0.3,0.6,0.3,1.1
	v6.3C586.8,21.3,586.7,21.9,586.5,22.1z"/>
<path class="st0" d="M92.8,213.7c0,8.3-6.7,15-15,15s-15-6.7-15-15c0-8.3,6.7-15,15-15S92.8,205.4,92.8,213.7z M68.6,218.8
	c-0.1,0.2-0.6,0.3-1.1,0.3v0.3h4.3v-0.3c-0.6,0-1-0.1-1.2-0.3c-0.2-0.1-0.3-0.6-0.3-1.1v-2.8h1.2c1.2,0,2.2-0.2,2.9-0.7
	c0.8-0.5,1.2-1.3,1.2-2.3c0-0.8-0.3-1.5-1-2c-0.7-0.5-1.7-0.8-3-0.8h-4.1v0.3c0.5,0.1,0.9,0.2,1,0.3c0.2,0.1,0.3,0.5,0.3,1v6.7
	C68.9,218.2,68.8,218.5,68.6,218.8z M71.1,209.8c0.7,0,1.3,0.1,1.7,0.3c0.8,0.3,1.3,1,1.3,1.9c0,1-0.3,1.7-1.1,2.1
	c-0.4,0.2-1,0.3-1.7,0.3h-0.3c0,0-0.1,0-0.1,0c-0.1,0-0.3-0.1-0.4-0.1v-4c0-0.2,0.1-0.3,0.1-0.4C70.6,209.8,70.7,209.8,71.1,209.8
	L71.1,209.8z M77.3,218.7c-0.2,0.2-0.6,0.3-1.3,0.4v0.3h3.6v-0.3c-0.6-0.1-1-0.2-1.1-0.3c-0.2-0.3-0.3-0.8-0.3-1.7V211l4,8.4h0.2
	l4-8.8v7c0,0.7-0.1,1-0.2,1.3c-0.1,0.2-0.6,0.3-1.2,0.3v0.3h4.3v-0.3c-0.6,0-0.9-0.1-1.1-0.3c-0.2-0.2-0.3-0.6-0.3-1.1v-6.9
	c0-0.5,0.1-0.9,0.3-1c0.1-0.1,0.6-0.2,1.1-0.3v-0.3h-3.1l-3.5,7.7l-3.6-7.7h-3.1v0.3c0.6,0,1,0.1,1.2,0.3c0.2,0.2,0.3,0.6,0.3,1.1
	v6.3C77.6,217.9,77.6,218.5,77.3,218.7z"/>
<path class="st0" d="M789.9,145.2c0,13.5-11,24.5-24.5,24.5c-13.5,0-24.5-11-24.5-24.5s11-24.5,24.5-24.5
	C778.9,120.7,789.9,131.7,789.9,145.2z M750.4,153.6c-0.2,0.3-0.9,0.5-1.8,0.6v0.5h7.1v-0.5c-1,0-1.6-0.2-1.9-0.5
	c-0.3-0.2-0.5-0.9-0.5-1.8v-4.6h1.9c1.9,0,3.5-0.3,4.8-1.1c1.3-0.8,1.9-2.1,1.9-3.8c0-1.4-0.6-2.5-1.7-3.3c-1.1-0.8-2.7-1.3-4.9-1.3
	h-6.7v0.5c0.8,0.1,1.5,0.3,1.7,0.6c0.3,0.2,0.5,0.8,0.5,1.7v11C750.7,152.6,750.6,153.2,750.4,153.6z M754.3,138.8
	c1.1,0,2.1,0.1,2.7,0.5c1.4,0.6,2.1,1.6,2.1,3.2c0,1.7-0.6,2.9-1.8,3.4c-0.7,0.3-1.6,0.5-2.7,0.5h-0.5c0,0-0.1,0-0.2,0
	c-0.2,0-0.4-0.1-0.7-0.1v-6.6c0-0.3,0.1-0.6,0.2-0.7C753.5,138.8,753.8,138.8,754.3,138.8z M764.6,153.4c-0.3,0.3-1,0.6-2.1,0.7v0.6
	h5.9v-0.5c-1-0.1-1.6-0.3-1.8-0.6c-0.3-0.5-0.6-1.4-0.6-2.7v-10.2l6.5,13.7h0.3l6.5-14.4v11.4c0,1.1-0.1,1.7-0.3,2.1
	c-0.2,0.3-0.9,0.5-1.9,0.6v0.5h7.1v-0.5c-0.9,0-1.5-0.1-1.8-0.5c-0.3-0.3-0.5-0.9-0.5-1.8v-11.3c0-0.8,0.2-1.5,0.5-1.7
	c0.2-0.2,0.9-0.3,1.8-0.5v-0.5h-5l-5.7,12.7l-5.8-12.7h-5v0.5c1,0,1.6,0.2,1.9,0.5c0.3,0.3,0.5,0.9,0.5,1.8v10.3
	C765.1,152.2,765,153.1,764.6,153.4z"/>
<path class="st0" d="M861.8,130.5c9.1,0,16.4-7.4,16.4-16.4s-7.4-16.4-16.4-16.4c-9.1,0-16.4,7.4-16.4,16.4S852.7,130.5,861.8,130.5
	z M861.6,108.7c0-1.3,0.7-2.6,1.9-3.3l0,0c0.5-0.4,1.2-0.5,1.9-0.5c0.6,0,1.3,0.1,1.9,0.5c1.2,0.7,1.9,2,1.9,3.3
	c0,1.3-0.7,2.6-1.9,3.3c-0.6,0.4-1.4,0.5-2.1,0.5c-0.8,0-1.4,0.6-1.4,1.5c0,1.1,0.8,1.5,1.4,1.5c0.8,0,1.4,0.1,2.1,0.5
	c1.2,0.7,1.9,2,1.9,3.3c0,1.3-0.7,2.6-1.9,3.3c-1.2,0.7-2.5,0.7-3.7,0c-1.2-0.7-1.9-2-1.9-3.3c0-0.7,0.2-1.4,0.5-2
	c0.3-0.7,0.1-1.6-0.5-2c-1-0.6-1.7,0.1-2,0.6c-0.3,0.6-0.8,1.2-1.4,1.6c-1.2,0.7-2.5,0.7-3.7,0c-1.2-0.7-1.9-2-1.9-3.3
	c0-1.3,0.7-2.6,1.9-3.3c1.2-0.7,2.5-0.7,3.7,0c0.6,0.4,1.1,1,1.5,1.6c0.4,0.7,1.3,1,2,0.6c1-0.5,0.8-1.5,0.6-2
	C861.9,110.1,861.6,109.4,861.6,108.7z"/>
<path class="st0" d="M409.2,156c10.8,0,19.6-8.8,19.6-19.6c0-10.8-8.8-19.6-19.6-19.6s-19.6,8.8-19.6,19.6
	C389.6,147.2,398.4,156,409.2,156z M409,130c0-1.6,0.8-3.1,2.2-4h0c0.7-0.4,1.5-0.6,2.2-0.6c0.7,0,1.6,0.2,2.2,0.6
	c1.4,0.8,2.2,2.4,2.2,4c0,1.6-0.8,3.1-2.2,4c-0.7,0.4-1.6,0.6-2.5,0.6c-1,0-1.7,0.8-1.7,1.8c0,1.3,1,1.8,1.7,1.8
	c0.9,0,1.7,0.2,2.5,0.6c1.4,0.8,2.2,2.4,2.2,4s-0.8,3.1-2.2,4c-1.4,0.8-3,0.8-4.4,0c-1.4-0.8-2.2-2.4-2.2-4c0-0.8,0.2-1.7,0.7-2.4
	c0.4-0.8,0.2-1.9-0.7-2.4c-1.1-0.7-2.1,0.1-2.4,0.7c-0.4,0.8-1,1.4-1.7,1.9c-1.4,0.8-3,0.8-4.4,0c-1.4-0.8-2.2-2.4-2.2-4
	s0.8-3.1,2.2-4c1.4-0.8,3-0.8,4.4,0c0.7,0.5,1.3,1.2,1.8,1.9c0.5,0.8,1.6,1.2,2.4,0.7c1.1-0.6,1-1.8,0.7-2.4
	C409.4,131.7,409,130.9,409,130z"/>
<path class="st0" d="M163.9,26.8c3.8,0,6.9-3.1,6.9-6.9s-3.1-6.9-6.9-6.9c-3.8,0-6.9,3.1-6.9,6.9S160.1,26.8,163.9,26.8z
	 M163.8,17.7c0-0.6,0.3-1.1,0.8-1.4l0,0c0.2-0.1,0.5-0.2,0.8-0.2c0.3,0,0.5,0.1,0.8,0.2c0.5,0.3,0.8,0.8,0.8,1.4
	c0,0.6-0.3,1.1-0.8,1.4c-0.3,0.1-0.6,0.2-0.9,0.2c-0.3,0-0.6,0.3-0.6,0.6c0,0.4,0.3,0.6,0.6,0.6c0.3,0,0.6,0.1,0.9,0.2
	c0.5,0.3,0.8,0.8,0.8,1.4c0,0.6-0.3,1.1-0.8,1.4c-0.5,0.3-1.1,0.3-1.6,0c-0.5-0.3-0.8-0.8-0.8-1.4c0-0.3,0.1-0.6,0.2-0.9
	c0.1-0.3,0.1-0.7-0.2-0.9c-0.4-0.2-0.7,0-0.8,0.2c-0.1,0.3-0.3,0.5-0.6,0.6c-0.5,0.3-1.1,0.3-1.6,0c-0.5-0.3-0.8-0.8-0.8-1.4
	s0.3-1.1,0.8-1.4c0.5-0.3,1.1-0.3,1.6,0c0.3,0.2,0.5,0.4,0.6,0.6c0.2,0.3,0.5,0.4,0.8,0.2c0.4-0.2,0.3-0.6,0.2-0.9
	C163.9,18.3,163.8,18,163.8,17.7z"/>
<path class="st0" d="M632.1,218.6c0.9-2.6,1.3-5.3,1.3-8.2c0-14.1-11.4-25.5-25.5-25.5c-14.1,0-25.5,11.4-25.5,25.5
	c0,2.9,0.5,5.6,1.3,8.2h7.7v-21.5l16.5,16.3l16.5-16.3v21.5H632.1z M629.4,224.1h-10.8v-13.5l-10.8,10.8l-10.8-10.8v13.5h-10.8
	c4.5,7.1,12.5,11.8,21.5,11.8S624.9,231.3,629.4,224.1z"/>
<path class="st0" d="M774,17.2c0.4-1.3,0.7-2.7,0.7-4.2c0-7.2-5.8-13-13-13c-7.2,0-13,5.8-13,13c0,1.5,0.2,2.8,0.7,4.2h3.9V6.2
	l8.4,8.3l8.4-8.3v10.9H774z M772.7,20h-5.5v-6.9l-5.5,5.5l-5.5-5.5V20h-5.5c2.3,3.6,6.4,6,11,6C766.3,26,770.4,23.6,772.7,20z"/>
<path class="st0" d="M352,95.2c1.1-3.3,1.7-6.9,1.7-10.6c0-18.3-14.8-33.1-33.1-33.1s-33.1,14.8-33.1,33.1c0,3.7,0.6,7.3,1.7,10.6
	h10V67.4l21.4,21.2L342,67.4v27.8H352z M348.6,102.4h-14V84.8l-14,14l-14-14v17.6h-14c5.9,9.2,16.2,15.4,28,15.4
	C332.4,117.7,342.7,111.6,348.6,102.4z"/>
<path class="st0" d="M55,166.4c0.9-2.7,1.4-5.7,1.4-8.7c0-15-12.2-27.2-27.2-27.2c-15,0-27.2,12.2-27.2,27.2c0,3,0.5,6,1.4,8.7h8.2
	v-22.9l17.6,17.4l17.6-17.4v22.9H55z M52.2,172.3H40.7v-14.4l-11.5,11.5l-11.5-11.5v14.4H6.2c4.8,7.6,13.3,12.6,23,12.6
	S47.4,179.9,52.2,172.3z"/>
<path class="st0" d="M127.6,180.3c0-6.1-4.9-11-11-11c-6.1,0-11,4.9-11,11c0,6.1,4.9,11,11,11S127.6,186.4,127.6,180.3z
	 M117.9,176.1v1.6h0c3,0.1,5.3,0.7,5.3,1.5c0,0.7-2.3,1.3-5.3,1.5v5.3h-2.7v-5.3c-3.1-0.1-5.3-0.7-5.3-1.5s2.3-1.3,5.3-1.5v-1.6
	h-3.8v-2.5h10.2v2.5H117.9z M117.9,180.2L117.9,180.2L117.9,180.2c2.7-0.1,4.7-0.6,4.7-1.1s-2-1-4.7-1.2v1.8c-0.1,0-0.5,0-1.3,0
	c-0.7,0-1.2,0-1.4,0v-1.8c-2.7,0.1-4.7,0.6-4.7,1.2s2,1,4.7,1.2v0c0.2,0,0.7,0,1.4,0C117.4,180.2,117.8,180.2,117.9,180.2z"/>
<path class="st0" d="M736.4,75.6c0-16.3-13.2-29.4-29.4-29.4c-16.3,0-29.4,13.2-29.4,29.4S690.7,105,707,105
	C723.2,105,736.4,91.8,736.4,75.6z M710.6,64.3v4.4l0,0c8.1,0.4,14.2,2,14.2,3.9s-6.1,3.5-14.2,3.9v14h-7.2v-14
	c-8.1-0.4-14.3-2-14.3-3.9c0-1.9,6.1-3.5,14.3-3.9v-4.4h-10v-6.7h27.3v6.7H710.6z M710.6,75.3L710.6,75.3L710.6,75.3
	c7.2-0.3,12.5-1.6,12.5-3.1c0-1.5-5.4-2.7-12.5-3.1v4.9c-0.2,0-1.3,0.1-3.6,0.1c-1.9,0-3.2-0.1-3.7-0.1v-4.9
	c-7.2,0.3-12.6,1.6-12.6,3.1c0,1.5,5.4,2.8,12.6,3.1v0c0.5,0,1.8,0.1,3.6,0.1C709.4,75.4,710.4,75.3,710.6,75.3z"/>
<path class="st0" d="M703.6,209.5c0-4.6-3.7-8.3-8.3-8.3s-8.3,3.7-8.3,8.3c0,4.6,3.7,8.3,8.3,8.3S703.6,214.1,703.6,209.5z
	 M696.2,206.3v1.2h0c2.3,0.1,4,0.6,4,1.1c0,0.5-1.7,1-4,1.1v4h-2.1v-4c-2.3-0.1-4-0.6-4-1.1s1.7-1,4-1.1v-1.2h-2.8v-1.9h7.7v1.9
	H696.2z M696.2,209.4L696.2,209.4L696.2,209.4c2-0.1,3.6-0.4,3.6-0.9c0-0.4-1.5-0.8-3.6-0.9v1.4c-0.1,0-0.4,0-1,0c-0.5,0-0.9,0-1,0
	v-1.4c-2,0.1-3.6,0.4-3.6,0.9c0,0.4,1.5,0.8,3.6,0.9v0c0.1,0,0.5,0,1,0C695.9,209.4,696.2,209.4,696.2,209.4z"/>
<path class="st0" d="M259.5,31.8c0,6.5-5.3,11.8-11.8,11.8c-6.5,0-11.8-5.3-11.8-11.8c0-6.5,5.3-11.8,11.8-11.8
	C254.3,20.1,259.5,25.3,259.5,31.8z M247.9,25.6c-1.9,0-3.3,0.1-4.3,0.3h-0.1v13.8h3.1v-5c0.3,0.1,0.7,0.1,1.1,0.1
	c1.9,0,3.5-0.4,4.5-1.5c0.9-0.8,1.3-2,1.3-3.3s-0.6-2.5-1.5-3.2C251.3,25.9,249.9,25.6,247.9,25.6z M247.8,32.3
	c-0.4,0-0.8-0.1-1-0.1V28c0.2-0.1,0.7-0.1,1.3-0.1c1.6,0,2.5,0.8,2.5,2.1C250.6,31.4,249.5,32.3,247.8,32.3z"/>
<path class="st0" d="M671.2,154c0,6.5-5.3,11.8-11.8,11.8c-6.5,0-11.8-5.3-11.8-11.8c0-6.5,5.3-11.8,11.8-11.8
	C665.9,142.3,671.2,147.5,671.2,154z M659.6,147.7c-1.9,0-3.3,0.1-4.3,0.3h-0.1v13.8h3.1v-5c0.3,0.1,0.7,0.1,1.1,0.1
	c1.9,0,3.4-0.4,4.5-1.5c0.9-0.8,1.3-2,1.3-3.3s-0.6-2.5-1.5-3.2C662.9,148.1,661.5,147.7,659.6,147.7z M659.5,154.5
	c-0.4,0-0.8-0.1-1-0.1v-4.2c0.2-0.1,0.7-0.1,1.3-0.1c1.6,0,2.5,0.8,2.5,2.1C662.2,153.6,661.2,154.5,659.5,154.5z"/>
<path class="st0" d="M967,209.5c0,6.5-5.3,11.8-11.8,11.8c-6.5,0-11.8-5.3-11.8-11.8c0-6.5,5.3-11.8,11.8-11.8
	C961.7,197.7,967,203,967,209.5z M955.4,203.2c-1.9,0-3.3,0.1-4.3,0.3h-0.1v13.8h3.1v-5c0.3,0.1,0.7,0.1,1.1,0.1
	c1.9,0,3.4-0.4,4.5-1.5c0.9-0.8,1.3-2,1.3-3.3c0-1.4-0.6-2.5-1.5-3.2C958.7,203.6,957.4,203.2,955.4,203.2z M955.3,209.9
	c-0.4,0-0.8-0.1-1-0.1v-4.2c0.2-0.1,0.7-0.1,1.3-0.1c1.6,0,2.5,0.8,2.5,2.1C958,209,957,209.9,955.3,209.9z"/>
<path class="st0" d="M55,54.9c0,8.9-7.2,16.2-16.2,16.2s-16.2-7.2-16.2-16.2c0-8.9,7.2-16.2,16.2-16.2S55,46,55,54.9z M39,46.3
	c-2.6,0-4.5,0.2-5.9,0.4h-0.1v19h4.3v-6.9c0.5,0.1,0.9,0.1,1.5,0.1c2.6,0,4.7-0.6,6.2-2c1.2-1.1,1.8-2.7,1.8-4.6
	c0-1.9-0.8-3.5-2-4.4C43.6,46.8,41.7,46.3,39,46.3z M38.9,55.5c-0.6,0-1.1-0.1-1.4-0.2v-5.7c0.3-0.1,0.9-0.2,1.8-0.2
	c2.2,0,3.4,1.1,3.4,2.9C42.6,54.3,41.2,55.5,38.9,55.5z"/>
<path class="st0" d="M405.3,220.5c0,4.5-3.6,8.1-8.1,8.1s-8.1-3.6-8.1-8.1c0-4.5,3.6-8.1,8.1-8.1S405.3,216.1,405.3,220.5z
	 M397.3,216.2c-1.3,0-2.3,0.1-2.9,0.2h0v9.5h2.1v-3.4c0.2,0,0.5,0,0.8,0c1.3,0,2.4-0.3,3.1-1c0.6-0.6,0.9-1.4,0.9-2.3
	c0-0.9-0.4-1.7-1-2.2C399.6,216.5,398.6,216.2,397.3,216.2z M397.2,220.8c-0.3,0-0.5,0-0.7-0.1v-2.9c0.2,0,0.5-0.1,0.9-0.1
	c1.1,0,1.7,0.5,1.7,1.4C399.1,220.2,398.4,220.8,397.2,220.8z"/>
<path class="st0" d="M489.9,232.5c5.3,0,9.6-4.3,9.6-9.6c0-5.3-4.3-9.6-9.6-9.6c-5.3,0-9.6,4.3-9.6,9.6
	C480.3,228.3,484.6,232.5,489.9,232.5z M494,225.7h-4.8c0.4-0.4,0.8-0.8,1.2-1.3c1-1.1,1.9-2.2,2.8-3.3c0.1-0.1,0.2-0.2,0.3-0.3
	c0.2-0.3,0.5-0.5,0.6-0.8c0.1-0.5,0.1-1.1,0.1-1.6c0-0.2,0-0.5,0-0.7h-3v-2h-2.4v2H486v2.4h4.6c-0.2,0.2-0.4,0.4-0.5,0.6
	c-0.2,0.2-0.4,0.5-0.6,0.7c-1,1.1-1.9,2.2-2.8,3.3c-0.1,0.1-0.2,0.2-0.3,0.3c-0.2,0.2-0.5,0.5-0.5,0.8c-0.1,0.5-0.1,1.1-0.1,1.6
	c0,0.2,0,0.5,0,0.7h3v2h2.5c0-0.3,0-0.7-0.1-1c0-0.3,0-0.7-0.1-1h3V225.7z"/>
<path class="st0" d="M896.6,51.5c5.3,0,9.6-4.3,9.6-9.6s-4.3-9.6-9.6-9.6c-5.3,0-9.6,4.3-9.6,9.6S891.3,51.5,896.6,51.5z
	 M900.7,44.7h-4.8c0.4-0.4,0.8-0.8,1.2-1.3c1-1.1,1.9-2.2,2.8-3.3c0.1-0.1,0.2-0.2,0.3-0.3c0.2-0.3,0.5-0.5,0.6-0.8
	c0.1-0.5,0.1-1.1,0.1-1.6c0-0.2,0-0.5,0-0.7h-3v-2h-2.4v2h-2.7v2.4h4.6c-0.2,0.2-0.4,0.4-0.5,0.6c-0.2,0.2-0.4,0.5-0.6,0.7
	c-1,1.1-1.9,2.2-2.8,3.3c-0.1,0.1-0.2,0.2-0.3,0.3c-0.2,0.2-0.5,0.5-0.5,0.8c-0.1,0.5-0.1,1.1-0.1,1.6c0,0.2,0,0.5,0,0.7h3v2h2.5
	c0-0.3,0-0.7-0.1-1c0-0.3,0-0.7-0.1-1h3V44.7z"/>
<path class="st0" d="M778.4,89.8c5.3,0,9.6-4.3,9.6-9.6c0-5.3-4.3-9.6-9.6-9.6c-5.3,0-9.6,4.3-9.6,9.6
	C768.8,85.5,773.1,89.8,778.4,89.8z M782.5,83h-4.8c0.4-0.4,0.8-0.8,1.2-1.3c1-1.1,1.9-2.2,2.8-3.3c0.1-0.1,0.2-0.2,0.3-0.3
	c0.2-0.3,0.5-0.5,0.6-0.8c0.1-0.5,0.1-1.1,0.1-1.6c0-0.2,0-0.5,0-0.7h-3v-2h-2.4v2h-2.7v2.4h4.6c-0.2,0.2-0.4,0.4-0.5,0.6
	c-0.2,0.2-0.4,0.5-0.6,0.7c-1,1.1-1.9,2.2-2.8,3.3c-0.1,0.1-0.2,0.2-0.3,0.3c-0.2,0.2-0.5,0.5-0.5,0.8c-0.1,0.5-0.1,1.1-0.1,1.6
	c0,0.2,0,0.5,0,0.7h3v2h2.5c0-0.3,0-0.7-0.1-1c0-0.3,0-0.7-0.1-1h3V83z"/>
<path class="st1" d="M671.6,12.1l0.7,0.6l-8.5,5.1l-4.1-2.5l0.4-0.8l3.7,2.2L671.6,12.1z M669.9,11.1l0.9,0.5l-7,4.2l-3.3-1.9
	l0.5-0.7l2.7,1.6L669.9,11.1z M672.9,13.4l0.5,0.7l-9.6,5.7l-4.6-2.8l0.2-0.9l4.4,2.6L672.9,13.4z"/>
<path class="st1" d="M674.3,16c0.3,0.8,0.4,1.7,0.4,2.6c0,0.9-0.2,1.8-0.4,2.6l-0.2,0.6c-0.4,1-1,1.8-1.7,2.6
	c-0.7,0.8-1.6,1.3-2.5,1.7c-1,0.4-2,0.7-3.1,0.7c-1.1,0-2.1-0.2-3-0.7s-1.8-1-2.5-1.8c-0.7-0.8-1.3-1.6-1.7-2.6
	c-0.5-1-0.7-2.1-0.7-3.2V18l4.8,2.9l10-6L674.3,16z"/>
<path class="st1" d="M280.5,204.5l0.9,0.8l-11.2,6.7l-5.4-3.3l0.5-1l4.9,2.9L280.5,204.5z M278.3,203.1l1.2,0.6l-9.2,5.5l-4.3-2.5
	l0.7-0.9l3.5,2.1L278.3,203.1z M282.2,206.1l0.7,0.9l-12.6,7.5l-6.1-3.6l0.3-1.2l5.8,3.5L282.2,206.1z"/>
<path class="st1" d="M284,209.6c0.4,1.1,0.6,2.2,0.6,3.4c0,1.2-0.2,2.4-0.6,3.5l-0.3,0.7c-0.5,1.3-1.3,2.4-2.2,3.4
	c-1,1-2.1,1.7-3.3,2.3c-1.3,0.6-2.6,0.9-4,0.9s-2.7-0.3-4-0.9c-1.3-0.6-2.3-1.3-3.3-2.3c-1-1-1.7-2.1-2.2-3.4
	c-0.6-1.4-0.9-2.7-0.9-4.2v-0.7l6.3,3.8l13.2-7.9L284,209.6z"/>
<path class="st1" d="M479.9,58.1L482,60l-25.6,15.2L444,67.8l1.2-2.4l11.2,6.7L479.9,58.1z M474.7,54.9l2.7,1.4l-21,12.6l-9.8-5.8
	l1.6-2.2l8.1,4.8L474.7,54.9z M483.6,61.9l1.5,2.2l-28.7,17.1l-13.9-8.3l0.6-2.6l13.3,7.9L483.6,61.9z"/>
<path class="st1" d="M487.9,69.7c0.8,2.5,1.3,5,1.3,7.8s-0.5,5.4-1.3,7.9l-0.6,1.7c-1.2,2.9-2.9,5.5-5,7.8c-2.2,2.3-4.7,4-7.5,5.2
	c-3,1.3-6,2-9.2,2s-6.2-0.7-9.1-2c-2.9-1.3-5.3-3-7.5-5.3c-2.2-2.3-3.8-4.9-5-7.8c-1.4-3.1-2-6.2-2-9.6v-1.7l14.3,8.6l30.1-18
	L487.9,69.7z"/>
<path class="st1" d="M954.1,64.3l1.5,1.4l-19,11.3l-9.2-5.5l0.9-1.8l8.3,5L954.1,64.3z M950.3,62l2,1.1l-15.6,9.4l-7.3-4.3l1.2-1.6
	l6,3.6L950.3,62z M956.9,67.2l1.1,1.6l-21.4,12.7l-10.3-6.1l0.4-2l9.9,5.9L956.9,67.2z"/>
<path class="st1" d="M960.1,73c0.6,1.9,0.9,3.7,0.9,5.8c0,2-0.3,4-0.9,5.9l-0.4,1.2c-0.9,2.1-2.1,4.1-3.7,5.8
	c-1.6,1.7-3.5,2.9-5.6,3.8c-2.2,1-4.5,1.5-6.9,1.5s-4.6-0.5-6.8-1.5c-2.1-1-3.9-2.2-5.6-3.9c-1.6-1.7-2.8-3.7-3.7-5.8
	c-1-2.3-1.5-4.6-1.5-7.1v-1.2l10.6,6.4L959,70.5L960.1,73z"/>
<path class="st1" d="M753.3,213.2l0.5,0.5l-6.1,3.6l-3-1.8l0.3-0.6l2.7,1.6L753.3,213.2z M752.1,212.4l0.6,0.3l-5,3l-2.4-1.4
	l0.4-0.5l1.9,1.1L752.1,212.4z M754.2,214.1l0.4,0.5l-6.9,4.1l-3.3-2l0.1-0.6l3.2,1.9L754.2,214.1z"/>
<path class="st1" d="M755.2,216c0.2,0.6,0.3,1.2,0.3,1.9c0,0.7-0.1,1.3-0.3,1.9l-0.1,0.4c-0.3,0.7-0.7,1.3-1.2,1.9
	c-0.5,0.5-1.1,0.9-1.8,1.2c-0.7,0.3-1.4,0.5-2.2,0.5c-0.8,0-1.5-0.2-2.2-0.5c-0.7-0.3-1.3-0.7-1.8-1.3c-0.5-0.5-0.9-1.2-1.2-1.9
	c-0.3-0.7-0.5-1.5-0.5-2.3v-0.4l3.4,2.1l7.2-4.3L755.2,216z"/>
<path class="st1" d="M28.7,213.2l0.5,0.5l-6.1,3.6l-3-1.8l0.3-0.6l2.7,1.6L28.7,213.2z M27.5,212.4l0.6,0.3l-5,3l-2.4-1.4l0.4-0.5
	l1.9,1.1L27.5,212.4z M29.6,214.1l0.4,0.5l-6.9,4.1l-3.3-2l0.1-0.6l3.2,1.9L29.6,214.1z"/>
<path class="st1" d="M30.6,216c0.2,0.6,0.3,1.2,0.3,1.9c0,0.7-0.1,1.3-0.3,1.9l-0.1,0.4c-0.3,0.7-0.7,1.3-1.2,1.9
	c-0.5,0.5-1.1,0.9-1.8,1.2c-0.7,0.3-1.4,0.5-2.2,0.5c-0.8,0-1.5-0.2-2.2-0.5c-0.7-0.3-1.3-0.7-1.8-1.3c-0.5-0.5-0.9-1.2-1.2-1.9
	c-0.3-0.7-0.5-1.5-0.5-2.3v-0.4l3.4,2.1l7.2-4.3L30.6,216z"/>
<path class="st1" d="M240.7,68l0.5,0.5l-6.1,3.6l-3-1.8l0.3-0.6l2.7,1.6L240.7,68z M239.4,67.2l0.6,0.3l-5,3l-2.4-1.4l0.4-0.5
	l1.9,1.1L239.4,67.2z M241.6,68.9l0.4,0.5l-6.9,4.1l-3.3-2l0.1-0.6l3.2,1.9L241.6,68.9z"/>
<path class="st1" d="M242.6,70.7c0.2,0.6,0.3,1.2,0.3,1.9c0,0.7-0.1,1.3-0.3,1.9l-0.1,0.4c-0.3,0.7-0.7,1.3-1.2,1.9
	c-0.5,0.5-1.1,0.9-1.8,1.2c-0.7,0.3-1.4,0.5-2.2,0.5c-0.8,0-1.5-0.2-2.2-0.5c-0.7-0.3-1.3-0.7-1.8-1.3c-0.5-0.5-0.9-1.2-1.2-1.9
	c-0.3-0.7-0.5-1.5-0.5-2.3v-0.4l3.4,2.1l7.2-4.3L242.6,70.7z"/>
<path class="st0" d="M178.2,322.9c0,25.9-21,46.9-46.9,46.9c-25.9,0-46.9-21-46.9-46.9c0-25.9,21-46.9,46.9-46.9
	C157.2,276,178.2,297,178.2,322.9z M141.7,304.3c6.4,2.3,11.1,5.6,10.3,11.9c-0.7,4.7-3.2,6.9-6.2,7.3c4.5,2.3,6.9,6,4.7,12.4
	c-2.8,7.9-9.4,8.5-18.2,6.9l-2.2,8.5L125,350l2.1-8.3c-1.3-0.3-2.6-0.6-4.1-1l-2.1,8.5l-5.1-1.3l2.2-8.5l0,0
	c-1.2-0.3-2.3-0.6-3.7-0.9l-6.7-1.6l2.5-5.9c0,0,3.8,1,3.8,0.9c1.5,0.4,2.1-0.6,2.3-1.2l3.4-13.5l2.3-9.7c0.1-1-0.3-2.3-2.3-2.9
	l-3.8-0.9l1.3-5.6l7,1.8c0.6,0.2,1.1,0.3,1.7,0.4c0.5,0.1,1,0.2,1.5,0.3l2.1-8.5l5.1,1.3l-2.1,8.3c1.1,0.4,2.3,0.6,3.5,0.9
	c0.2,0,0.4,0.1,0.6,0.1l2.1-8.2l5.1,1.2L141.7,304.3z M125.4,335.1c4.2,1.1,13.3,3.6,14.8-2.3c1.5-5.9-7.5-8-11.8-8.9
	c-0.5-0.1-0.9-0.2-1.2-0.3l-2.8,11.3C124.7,334.9,125,335,125.4,335.1z M129.3,318.6c3.5,0.9,11.2,3,12.5-2.4
	c1.4-5.7-6.7-7.3-10.2-7.9c-0.2,0-0.5-0.1-0.7-0.1l-2.5,10.2C128.7,318.5,129,318.5,129.3,318.6z"/>
<path class="st2" d="M554.5,382c0,17.1-13.9,30.9-30.9,30.9c-17.1,0-30.9-13.8-30.9-30.9c0-17.1,13.9-30.9,30.9-30.9
	C540.6,351.1,554.5,364.9,554.5,382z M530.4,369.8c4.3,1.5,7.3,3.7,6.8,7.8c-0.5,3.1-2.1,4.5-4.1,4.8c3,1.5,4.5,4,3.1,8.2
	c-1.8,5.2-6.2,5.6-12,4.5l-1.5,5.6l-3.4-0.9l1.4-5.5c-0.9-0.2-1.7-0.4-2.7-0.7l-1.4,5.6l-3.4-0.9l1.5-5.6l0,0
	c-0.8-0.2-1.5-0.4-2.4-0.6l-4.4-1.1l1.6-3.9c0,0,2.5,0.7,2.5,0.6c1,0.3,1.4-0.4,1.5-0.8l2.2-8.9l1.5-6.4c0.1-0.7-0.2-1.5-1.5-1.9
	l-2.5-0.6l0.9-3.7l4.6,1.2c0.4,0.1,0.8,0.2,1.1,0.3c0.3,0.1,0.6,0.1,1,0.2l1.4-5.6l3.4,0.9l-1.4,5.5c0.7,0.2,1.5,0.4,2.3,0.6
	c0.1,0,0.3,0.1,0.4,0.1l1.4-5.4l3.4,0.8L530.4,369.8z M519.7,390c2.8,0.7,8.8,2.3,9.7-1.5c1-3.9-4.9-5.2-7.8-5.9
	c-0.3-0.1-0.6-0.1-0.8-0.2l-1.8,7.4C519.2,389.9,519.4,390,519.7,390z M522.2,379.2c2.3,0.6,7.4,2,8.3-1.6c0.9-3.8-4.4-4.8-6.7-5.2
	c-0.2,0-0.3-0.1-0.4-0.1l-1.6,6.8C521.8,379.1,522,379.1,522.2,379.2z"/>
<path class="st0" d="M858.1,279.4c0,10.6-8.6,19.1-19.2,19.1c-10.6,0-19.2-8.6-19.2-19.1c0-10.6,8.6-19.1,19.2-19.1
	C849.5,260.3,858.1,268.9,858.1,279.4z M843.2,271.9c2.6,1,4.5,2.3,4.2,4.8c-0.3,1.9-1.3,2.8-2.5,3c1.9,1,2.8,2.5,1.9,5.1
	c-1.1,3.2-3.8,3.5-7.4,2.8l-0.9,3.5l-2.1-0.5l0.8-3.4c-0.5-0.1-1.1-0.2-1.7-0.4l-0.8,3.5l-2.1-0.5l0.9-3.5c-0.5-0.1-1-0.2-1.5-0.4
	l-2.8-0.7l1-2.4c0,0,1.6,0.4,1.6,0.4c0.6,0.2,0.8-0.2,1-0.5l1.4-5.5l1-3.9c0.1-0.4-0.1-1-1-1.2l-1.6-0.4l0.5-2.3l2.9,0.7
	c0.2,0.1,0.5,0.1,0.7,0.2c0.2,0,0.4,0.1,0.6,0.1l0.8-3.5l2.1,0.5l-0.8,3.4c0.5,0.2,1,0.3,1.4,0.4c0.1,0,0.2,0,0.2,0.1l0.8-3.3
	l2.1,0.5L843.2,271.9z M836.6,284.4c1.7,0.5,5.4,1.5,6-1c0.6-2.4-3-3.2-4.8-3.6c-0.2,0-0.4-0.1-0.5-0.1l-1.1,4.6
	C836.3,284.3,836.4,284.4,836.6,284.4z M838.2,277.7c1.4,0.4,4.6,1.2,5.1-1c0.6-2.3-2.7-3-4.2-3.2c-0.1,0-0.2,0-0.3-0.1l-1,4.2
	C837.9,277.6,838,277.7,838.2,277.7z"/>
<path class="st0" d="M547.6,286.3c0,6.8-5.5,12.3-12.3,12.3c-6.8,0-12.3-5.5-12.3-12.3c0-6.8,5.5-12.3,12.3-12.3
	C542.1,274,547.6,279.5,547.6,286.3z M538,281.5c1.7,0.6,2.9,1.5,2.7,3.1c-0.2,1.2-0.8,1.8-1.6,1.9c1.2,0.6,1.8,1.6,1.2,3.3
	c-0.7,2.1-2.5,2.2-4.8,1.8l-0.6,2.2l-1.3-0.3l0.5-2.2c-0.3-0.1-0.7-0.2-1.1-0.3l-0.5,2.2l-1.3-0.3l0.6-2.2l0,0
	c-0.3-0.1-0.6-0.2-1-0.2l-1.8-0.4l0.7-1.5c0,0,1,0.3,1,0.2c0.4,0.1,0.5-0.2,0.6-0.3l0.9-3.5l0.6-2.5c0-0.3-0.1-0.6-0.6-0.8l-1-0.2
	l0.3-1.5l1.8,0.5c0.1,0,0.3,0.1,0.5,0.1c0.1,0,0.3,0.1,0.4,0.1l0.5-2.2l1.3,0.3l-0.5,2.2c0.3,0.1,0.6,0.2,0.9,0.2c0.1,0,0.1,0,0.2,0
	l0.5-2.1l1.3,0.3L538,281.5z M533.8,289.5c1.1,0.3,3.5,0.9,3.9-0.6c0.4-1.6-2-2.1-3.1-2.3c-0.1,0-0.2-0.1-0.3-0.1l-0.7,3
	C533.6,289.5,533.6,289.5,533.8,289.5z M534.8,285.2c0.9,0.2,2.9,0.8,3.3-0.6c0.4-1.5-1.8-1.9-2.7-2.1c-0.1,0-0.1,0-0.2,0l-0.7,2.7
	C534.6,285.2,534.7,285.2,534.8,285.2z"/>
<path class="st0" d="M64.3,330.2c0,5.3-4.3,9.6-9.6,9.6c-5.3,0-9.6-4.3-9.6-9.6c0-5.3,4.3-9.6,9.6-9.6
	C60,320.6,64.3,324.9,64.3,330.2z M56.9,326.4c1.3,0.5,2.3,1.1,2.1,2.4c-0.1,1-0.7,1.4-1.3,1.5c0.9,0.5,1.4,1.2,1,2.5
	c-0.6,1.6-1.9,1.7-3.7,1.4l-0.4,1.7l-1-0.3l0.4-1.7c-0.3-0.1-0.5-0.1-0.8-0.2l-0.4,1.7l-1-0.3l0.4-1.7c-0.2-0.1-0.5-0.1-0.7-0.2
	l-1.4-0.3l0.5-1.2c0,0,0.8,0.2,0.8,0.2c0.3,0.1,0.4-0.1,0.5-0.2l0.7-2.8l0.5-2c0-0.2-0.1-0.5-0.5-0.6l-0.8-0.2l0.3-1.1l1.4,0.4
	c0.1,0,0.2,0.1,0.4,0.1c0.1,0,0.2,0,0.3,0.1l0.4-1.7l1,0.3l-0.4,1.7c0.2,0.1,0.5,0.1,0.7,0.2c0,0,0.1,0,0.1,0l0.4-1.7l1,0.2
	L56.9,326.4z M53.6,332.7c0.9,0.2,2.7,0.7,3-0.5c0.3-1.2-1.5-1.6-2.4-1.8c-0.1,0-0.2,0-0.3-0.1l-0.6,2.3
	C53.4,332.7,53.5,332.7,53.6,332.7z M54.3,329.3c0.7,0.2,2.3,0.6,2.6-0.5c0.3-1.2-1.4-1.5-2.1-1.6c0,0-0.1,0-0.1,0l-0.5,2.1
	C54.2,329.3,54.3,329.3,54.3,329.3z"/>
<path class="st1" d="M201.7,419.3c-11.7,0-21.1,9.6-21.1,21.3c0,11.8,9.4,21.3,21.1,21.3s21.1-9.6,21.1-21.3
	C222.8,428.8,213.3,419.3,201.7,419.3z M209.9,451h-16.5l1.4-6.7l-2.7,1.9l0.7-3.7l2.8-2l2.8-13.3h5.1l-1.9,9.2l6.7-4.7l-0.8,3.8
	l-6.7,4.6l-1.3,6.4h11.3L209.9,451z"/>
<path class="st1" d="M609.8,290.2c-15.2,0-27.5,12.4-27.5,27.7s12.3,27.7,27.5,27.7c15.2,0,27.5-12.4,27.5-27.7
	S625,290.2,609.8,290.2z M620.5,331.5H599l1.8-8.7l-3.5,2.4l0.9-4.8l3.7-2.5l3.6-17.3h6.7l-2.5,11.9l8.7-6.1l-1,4.9l-8.7,6l-1.7,8.3
	h14.8L620.5,331.5z"/>
<path class="st1" d="M911.8,365.8c-13.7,0-24.8,11.2-24.8,25c0,13.8,11.1,25,24.8,25c13.7,0,24.8-11.2,24.8-25
	C936.6,377,925.5,365.8,911.8,365.8z M921.4,403h-19.4l1.6-7.8l-3.2,2.2l0.8-4.3l3.3-2.3l3.2-15.6h6l-2.2,10.7l7.9-5.5l-0.9,4.4
	l-7.9,5.4l-1.6,7.5h13.3L921.4,403z"/>
<path class="st1" d="M412.6,227.9c-12.5,0-22.6,10.3-22.6,23.1s10.1,23.1,22.6,23.1c12.5,0,22.6-10.3,22.6-23.1
	S425.1,227.9,412.6,227.9z M421.4,262.2h-17.6l1.5-7.2l-2.9,2l0.7-4l3-2.1l3-14.4h5.5l-2,9.9l7.2-5l-0.8,4.1l-7.2,5l-1.4,6.9h12.1
	L421.4,262.2z"/>
<path class="st0" d="M860.5,432.3c0,17.2-13.9,31.2-31.2,31.2c-17.2,0-31.2-13.9-31.2-31.2c0-17.2,13.9-31.2,31.2-31.2
	C846.6,401.1,860.5,415.1,860.5,432.3z M824.3,424.3c-1.1,0-2.3,0-3.4,0c0-0.2,0.9-5.1,1-5.7h10c0.1,0,0.2,0,0.3,0
	c3,0,5.9,0,8.5,1.1c2.3,1,3.9,2.6,4.6,5.4c0.7,2.8,0.3,6.2-0.4,8.9c-1.2,5.1-3.8,9.2-8.8,11.1c-2.5,0.9-5.3,0.9-8.2,0.9
	c-0.3,0-0.6,0-0.9,0H827c-3.3,0-6.6,0-9.9,0l1-5.7c1.1,0,2.3,0,3.4,0c1.1,0,2.3,0,3.4,0c0.5,0,1,0,1.5,0c3.1,0.1,6.3,0.1,8.8-1.6
	c1.7-1.2,2.5-3.2,3-5.5c1.1-4.6,0.8-7.9-4-8.6c-1.5-0.2-3.4-0.2-5.2-0.2c-0.5,0-1,0-1.5,0C826.6,424.3,825.4,424.3,824.3,424.3z
	 M822.2,435.1c-2.9,0-9.6,0-10.1,0c0.1-1,0.8-3.6,1.3-4.3c1-1.4,2.5-1.4,4-1.3c0.1,0,0.2,0,0.3,0h11.4c-0.1,0.6-0.3,1.4-0.5,2.1
	c0,0.1,0,0.2-0.1,0.3c-0.8,3-1.9,3.3-5.2,3.3C823.3,435.1,822.8,435.1,822.2,435.1z"/>
<path class="st0" d="M255.1,358.4c0,13-10.5,23.5-23.5,23.5c-13,0-23.5-10.5-23.5-23.5c0-13,10.5-23.5,23.5-23.5
	C244.6,334.9,255.1,345.4,255.1,358.4z M227.8,352.4c-0.9,0-1.7,0-2.6,0c0-0.2,0.7-3.8,0.7-4.3h7.5c0.1,0,0.2,0,0.3,0
	c2.3,0,4.5,0,6.4,0.8c1.7,0.7,3,2,3.5,4c0.5,2.1,0.2,4.7-0.3,6.7c-0.9,3.9-2.9,6.9-6.7,8.4c-1.9,0.7-4,0.7-6.2,0.7
	c-0.2,0-0.5,0-0.7,0h-0.1c-2.5,0-5,0-7.5,0l0.8-4.3c0.9,0,1.7,0,2.6,0c0.9,0,1.7,0,2.6,0c0.4,0,0.8,0,1.1,0c2.3,0,4.7,0.1,6.7-1.2
	c1.3-0.9,1.9-2.4,2.3-4.2c0.8-3.5,0.6-6-3-6.5c-1.2-0.2-2.6-0.2-3.9-0.1c-0.4,0-0.8,0-1.1,0C229.5,352.4,228.6,352.4,227.8,352.4z
	 M226.2,360.6c-2.2,0-7.3,0-7.6,0c0.1-0.7,0.6-2.7,1-3.3c0.7-1,1.9-1,3-1c0.1,0,0.2,0,0.3,0h8.6c-0.1,0.5-0.2,1.1-0.3,1.6
	c0,0.1,0,0.1-0.1,0.2c-0.6,2.2-1.4,2.5-3.9,2.5C227,360.6,226.7,360.6,226.2,360.6z"/>
<path class="st0" d="M363.6,434.7c0,7.7-6.3,14-14,14c-7.7,0-14-6.3-14-14c0-7.7,6.3-14,14-14C357.3,420.7,363.6,427,363.6,434.7z
	 M347.3,431.1c-0.5,0-1,0-1.5,0c0-0.1,0.4-2.3,0.4-2.5h4.5c0.1,0,0.1,0,0.2,0c1.4,0,2.7,0,3.8,0.5c1,0.4,1.8,1.2,2.1,2.4
	c0.3,1.2,0.1,2.8-0.2,4c-0.5,2.3-1.7,4.1-4,5c-1.1,0.4-2.4,0.4-3.7,0.4c-0.1,0-0.3,0-0.4,0h0c-1.5,0-3,0-4.4,0l0.5-2.5
	c0.5,0,1,0,1.5,0c0.5,0,1,0,1.5,0c0.2,0,0.4,0,0.7,0c1.4,0,2.8,0,4-0.7c0.8-0.5,1.1-1.5,1.4-2.5c0.5-2.1,0.4-3.5-1.8-3.9
	c-0.7-0.1-1.5-0.1-2.3-0.1c-0.2,0-0.5,0-0.7,0C348.3,431.1,347.8,431.1,347.3,431.1z M346.4,436c-1.3,0-4.3,0-4.5,0
	c0-0.4,0.3-1.6,0.6-1.9c0.4-0.6,1.1-0.6,1.8-0.6c0.1,0,0.1,0,0.2,0h5.1c0,0.3-0.1,0.6-0.2,0.9c0,0,0,0.1,0,0.1
	c-0.3,1.3-0.8,1.5-2.3,1.5C346.8,436,346.6,436,346.4,436z"/>
<path class="st0" d="M601.5,239c0,8.3-6.7,15-15,15s-15-6.7-15-15s6.7-15,15-15S601.5,230.7,601.5,239z M577.4,244.1
	c-0.1,0.2-0.6,0.3-1.1,0.3v0.3h4.3v-0.3c-0.6,0-1-0.1-1.2-0.3c-0.2-0.1-0.3-0.6-0.3-1.1v-2.8h1.2c1.2,0,2.2-0.2,2.9-0.7
	c0.8-0.5,1.2-1.3,1.2-2.3c0-0.8-0.3-1.5-1-2c-0.7-0.5-1.7-0.8-3-0.8h-4.1v0.3c0.5,0.1,0.9,0.2,1,0.3c0.2,0.1,0.3,0.5,0.3,1v6.7
	C577.6,243.5,577.5,243.9,577.4,244.1z M579.8,235.1c0.7,0,1.3,0.1,1.7,0.3c0.8,0.3,1.3,1,1.3,1.9c0,1-0.3,1.7-1.1,2.1
	c-0.4,0.2-1,0.3-1.7,0.3h-0.3c0,0-0.1,0-0.1,0c-0.1,0-0.3-0.1-0.4-0.1v-4c0-0.2,0.1-0.3,0.1-0.4
	C579.3,235.1,579.5,235.1,579.8,235.1L579.8,235.1z M586.1,244c-0.2,0.2-0.6,0.3-1.3,0.4v0.3h3.6v-0.3c-0.6-0.1-1-0.2-1.1-0.3
	c-0.2-0.3-0.3-0.8-0.3-1.7v-6.2l4,8.4h0.2l4-8.8v7c0,0.7-0.1,1-0.2,1.3c-0.1,0.2-0.6,0.3-1.2,0.3v0.3h4.3v-0.3
	c-0.6,0-0.9-0.1-1.1-0.3c-0.2-0.2-0.3-0.6-0.3-1.1v-6.9c0-0.5,0.1-0.9,0.3-1c0.1-0.1,0.6-0.2,1.1-0.3v-0.3H595l-3.5,7.7l-3.6-7.7
	h-3.1v0.3c0.6,0,1,0.1,1.2,0.3c0.2,0.2,0.3,0.6,0.3,1.1v6.3C586.4,243.2,586.3,243.8,586.1,244z"/>
<path class="st0" d="M92.8,441.6c0,8.3-6.7,15-15,15s-15-6.7-15-15s6.7-15,15-15S92.8,433.3,92.8,441.6z M68.6,446.7
	c-0.1,0.2-0.6,0.3-1.1,0.3v0.3h4.3V447c-0.6,0-1-0.1-1.2-0.3c-0.2-0.1-0.3-0.6-0.3-1.1v-2.8h1.2c1.2,0,2.2-0.2,2.9-0.7
	c0.8-0.5,1.2-1.3,1.2-2.3c0-0.8-0.3-1.5-1-2c-0.7-0.5-1.7-0.8-3-0.8h-4.1v0.3c0.5,0.1,0.9,0.2,1,0.3c0.2,0.1,0.3,0.5,0.3,1v6.7
	C68.9,446.1,68.8,446.5,68.6,446.7z M71.1,437.7c0.7,0,1.3,0.1,1.7,0.3c0.8,0.3,1.3,1,1.3,2c0,1-0.3,1.7-1.1,2.1
	c-0.4,0.2-1,0.3-1.7,0.3h-0.3c0,0-0.1,0-0.1,0c-0.1,0-0.3-0.1-0.4-0.1v-4c0-0.2,0.1-0.3,0.1-0.4C70.6,437.7,70.7,437.7,71.1,437.7
	L71.1,437.7z M77.3,446.6c-0.2,0.2-0.6,0.3-1.3,0.4v0.3h3.6v-0.3c-0.6-0.1-1-0.2-1.1-0.3c-0.2-0.3-0.3-0.8-0.3-1.7v-6.2l4,8.4h0.2
	l4-8.8v7c0,0.7-0.1,1-0.2,1.3c-0.1,0.2-0.6,0.3-1.2,0.3v0.3h4.3V447c-0.6,0-0.9-0.1-1.1-0.3c-0.2-0.2-0.3-0.6-0.3-1.1v-6.9
	c0-0.5,0.1-0.9,0.3-1c0.1-0.1,0.6-0.2,1.1-0.3v-0.3h-3.1l-3.5,7.7l-3.6-7.7h-3.1v0.3c0.6,0,1,0.1,1.2,0.3c0.2,0.2,0.3,0.6,0.3,1.1
	v6.3C77.6,445.8,77.6,446.4,77.3,446.6z"/>
<path class="st0" d="M789.9,373.1c0,13.5-11,24.5-24.5,24.5c-13.5,0-24.5-11-24.5-24.5c0-13.5,11-24.5,24.5-24.5
	C778.9,348.6,789.9,359.6,789.9,373.1z M750.4,381.5c-0.2,0.3-0.9,0.5-1.8,0.6v0.5h7.1v-0.5c-1,0-1.6-0.2-1.9-0.5
	c-0.3-0.2-0.5-0.9-0.5-1.8v-4.6h1.9c1.9,0,3.5-0.3,4.8-1.1c1.3-0.8,1.9-2.1,1.9-3.8c0-1.4-0.6-2.5-1.7-3.3c-1.1-0.8-2.7-1.3-4.9-1.3
	h-6.7v0.5c0.8,0.1,1.5,0.3,1.7,0.6c0.3,0.2,0.5,0.8,0.5,1.7v11C750.7,380.6,750.6,381.1,750.4,381.5z M754.3,366.8
	c1.1,0,2.1,0.1,2.7,0.5c1.4,0.6,2.1,1.6,2.1,3.2c0,1.7-0.6,2.9-1.8,3.4c-0.7,0.3-1.6,0.5-2.7,0.5h-0.5c0,0-0.1,0-0.2,0
	c-0.2,0-0.4-0.1-0.7-0.1v-6.6c0-0.3,0.1-0.6,0.2-0.7C753.5,366.8,753.8,366.8,754.3,366.8z M764.6,381.4c-0.3,0.3-1,0.6-2.1,0.7v0.6
	h5.9v-0.5c-1-0.1-1.6-0.3-1.8-0.6c-0.3-0.5-0.6-1.4-0.6-2.7v-10.2l6.5,13.7h0.3l6.5-14.4v11.4c0,1.1-0.1,1.7-0.3,2.1
	c-0.2,0.3-0.9,0.5-1.9,0.6v0.5h7.1v-0.5c-0.9,0-1.5-0.1-1.8-0.5c-0.3-0.3-0.5-0.9-0.5-1.8v-11.3c0-0.8,0.2-1.5,0.5-1.7
	c0.2-0.2,0.9-0.3,1.8-0.5v-0.5h-5l-5.7,12.7l-5.8-12.7h-5v0.5c1,0,1.6,0.2,1.9,0.5c0.3,0.3,0.5,0.9,0.5,1.8v10.3
	C765.1,380.1,765,381,764.6,381.4z"/>
<path class="st0" d="M861.8,358.4c9.1,0,16.4-7.4,16.4-16.4s-7.4-16.4-16.4-16.4c-9.1,0-16.4,7.4-16.4,16.4S852.7,358.4,861.8,358.4
	z M861.6,336.7c0-1.3,0.7-2.6,1.9-3.3l0,0c0.5-0.4,1.2-0.5,1.9-0.5c0.6,0,1.3,0.1,1.9,0.5c1.2,0.7,1.9,2,1.9,3.3s-0.7,2.6-1.9,3.3
	c-0.6,0.4-1.4,0.5-2.1,0.5c-0.8,0-1.4,0.6-1.4,1.5c0,1.1,0.8,1.5,1.4,1.5c0.8,0,1.4,0.1,2.1,0.5c1.2,0.7,1.9,2,1.9,3.3
	c0,1.3-0.7,2.6-1.9,3.3c-1.2,0.7-2.5,0.7-3.7,0c-1.2-0.7-1.9-2-1.9-3.3c0-0.7,0.2-1.4,0.5-2c0.3-0.7,0.1-1.6-0.5-2
	c-1-0.6-1.7,0.1-2,0.6c-0.3,0.6-0.8,1.2-1.4,1.6c-1.2,0.7-2.5,0.7-3.7,0c-1.2-0.7-1.9-2-1.9-3.3c0-1.3,0.7-2.6,1.9-3.3
	c1.2-0.7,2.5-0.7,3.7,0c0.6,0.4,1.1,1,1.5,1.6c0.4,0.7,1.3,1,2,0.6c1-0.5,0.8-1.5,0.6-2C861.9,338.1,861.6,337.4,861.6,336.7z"/>
<path class="st0" d="M409.2,383.9c10.8,0,19.6-8.8,19.6-19.6s-8.8-19.6-19.6-19.6s-19.6,8.8-19.6,19.6S398.4,383.9,409.2,383.9z
	 M409,358c0-1.6,0.8-3.1,2.2-4h0c0.7-0.4,1.5-0.6,2.2-0.6c0.7,0,1.6,0.2,2.2,0.6c1.4,0.8,2.2,2.4,2.2,4c0,1.6-0.8,3.1-2.2,4
	c-0.7,0.4-1.6,0.6-2.5,0.6c-1,0-1.7,0.8-1.7,1.8c0,1.3,1,1.8,1.7,1.8c0.9,0,1.7,0.2,2.5,0.6c1.4,0.8,2.2,2.4,2.2,4s-0.8,3.1-2.2,4
	c-1.4,0.8-3,0.8-4.4,0c-1.4-0.8-2.2-2.4-2.2-4c0-0.8,0.2-1.7,0.7-2.4c0.4-0.8,0.2-1.9-0.7-2.4c-1.1-0.7-2.1,0.1-2.4,0.7
	c-0.4,0.8-1,1.4-1.7,1.9c-1.4,0.8-3,0.8-4.4,0c-1.4-0.8-2.2-2.4-2.2-4s0.8-3.1,2.2-4c1.4-0.8,3-0.8,4.4,0c0.7,0.5,1.3,1.2,1.8,1.9
	c0.5,0.8,1.6,1.2,2.4,0.7c1.1-0.6,1-1.8,0.7-2.4C409.4,359.6,409,358.8,409,358z"/>
<path class="st0" d="M171.3,241.2c3.8,0,6.9-3.1,6.9-6.9c0-3.8-3.1-6.9-6.9-6.9s-6.9,3.1-6.9,6.9
	C164.4,238.1,167.5,241.2,171.3,241.2z M171.2,232.1c0-0.6,0.3-1.1,0.8-1.4h0c0.2-0.1,0.5-0.2,0.8-0.2c0.3,0,0.5,0.1,0.8,0.2
	c0.5,0.3,0.8,0.8,0.8,1.4c0,0.6-0.3,1.1-0.8,1.4c-0.3,0.1-0.6,0.2-0.9,0.2c-0.3,0-0.6,0.3-0.6,0.6c0,0.4,0.3,0.6,0.6,0.6
	c0.3,0,0.6,0.1,0.9,0.2c0.5,0.3,0.8,0.8,0.8,1.4c0,0.6-0.3,1.1-0.8,1.4c-0.5,0.3-1.1,0.3-1.6,0c-0.5-0.3-0.8-0.8-0.8-1.4
	c0-0.3,0.1-0.6,0.2-0.9c0.1-0.3,0.1-0.7-0.2-0.9c-0.4-0.2-0.7,0-0.8,0.2c-0.1,0.3-0.3,0.5-0.6,0.6c-0.5,0.3-1.1,0.3-1.6,0
	c-0.5-0.3-0.8-0.8-0.8-1.4s0.3-1.1,0.8-1.4c0.5-0.3,1.1-0.3,1.6,0c0.3,0.2,0.5,0.4,0.6,0.6c0.2,0.3,0.5,0.4,0.8,0.2
	c0.4-0.2,0.3-0.6,0.2-0.9C171.3,232.7,171.2,232.4,171.2,232.1z"/>
<path class="st0" d="M632.1,446.5c0.9-2.6,1.3-5.3,1.3-8.1c0-14.1-11.4-25.5-25.5-25.5c-14.1,0-25.5,11.4-25.5,25.5
	c0,2.8,0.5,5.6,1.3,8.1h7.7v-21.5l16.5,16.3l16.5-16.3v21.5H632.1z M629.4,452.1h-10.8v-13.5l-10.8,10.8l-10.8-10.8v13.5h-10.8
	c4.5,7.1,12.5,11.8,21.5,11.8S624.9,459.2,629.4,452.1z"/>
<path class="st0" d="M774,245.1c0.4-1.3,0.7-2.7,0.7-4.2c0-7.2-5.8-13-13-13c-7.2,0-13,5.8-13,13c0,1.5,0.2,2.8,0.7,4.2h3.9v-10.9
	l8.4,8.3l8.4-8.3v10.9H774z M772.7,247.9h-5.5V241l-5.5,5.5l-5.5-5.5v6.9h-5.5c2.3,3.6,6.4,6,11,6
	C766.3,253.9,770.4,251.5,772.7,247.9z"/>
<path class="st0" d="M352,323.1c1.1-3.3,1.7-6.9,1.7-10.6c0-18.3-14.8-33.1-33.1-33.1s-33.1,14.8-33.1,33.1c0,3.7,0.6,7.3,1.7,10.6
	h10v-27.8l21.4,21.2l21.4-21.2v27.8H352z M348.6,330.3h-14v-17.6l-14,14l-14-14v17.6h-14c5.9,9.2,16.2,15.4,28,15.4
	C332.4,345.7,342.7,339.5,348.6,330.3z"/>
<path class="st0" d="M55,394.4c0.9-2.7,1.4-5.7,1.4-8.7c0-15-12.2-27.2-27.2-27.2c-15,0-27.2,12.2-27.2,27.2c0,3,0.5,6,1.4,8.7h8.2
	v-22.9l17.6,17.4l17.6-17.4v22.9H55z M52.2,400.2H40.7v-14.4l-11.5,11.5l-11.5-11.5v14.4H6.2c4.8,7.6,13.3,12.6,23,12.6
	S47.4,407.8,52.2,400.2z"/>
<path class="st0" d="M127.6,408.2c0-6.1-4.9-11-11-11c-6.1,0-11,4.9-11,11c0,6.1,4.9,11,11,11S127.6,414.3,127.6,408.2z M117.9,404
	v1.6l0,0c3,0.1,5.3,0.7,5.3,1.5c0,0.7-2.3,1.3-5.3,1.5v5.3h-2.7v-5.3c-3.1-0.1-5.3-0.7-5.3-1.5s2.3-1.3,5.3-1.5V404h-3.8v-2.5h10.2
	v2.5H117.9z M117.9,408.1L117.9,408.1L117.9,408.1c2.7-0.1,4.7-0.6,4.7-1.1c0-0.6-2-1-4.7-1.1v1.8c-0.1,0-0.5,0-1.3,0
	c-0.7,0-1.2,0-1.4,0v-1.8c-2.7,0.1-4.7,0.6-4.7,1.1c0,0.6,2,1,4.7,1.2v0c0.2,0,0.7,0,1.4,0C117.4,408.2,117.8,408.1,117.9,408.1z"/>
<path class="st0" d="M736.4,303.5c0-16.3-13.2-29.4-29.4-29.4c-16.3,0-29.4,13.2-29.4,29.4c0,16.3,13.2,29.4,29.4,29.4
	C723.2,332.9,736.4,319.7,736.4,303.5z M710.6,292.2v4.4l0,0c8.1,0.4,14.2,2,14.2,3.9c0,1.9-6.1,3.5-14.2,3.9v14h-7.2v-14
	c-8.1-0.4-14.3-2-14.3-3.9s6.1-3.5,14.3-3.9v-4.4h-10v-6.7h27.3v6.7H710.6z M710.6,303.2L710.6,303.2L710.6,303.2
	c7.2-0.3,12.5-1.6,12.5-3.1s-5.4-2.7-12.5-3.1v4.9c-0.2,0-1.3,0.1-3.6,0.1c-1.9,0-3.2-0.1-3.7-0.1v-4.9c-7.2,0.3-12.6,1.6-12.6,3.1
	c0,1.5,5.4,2.8,12.6,3.1v0c0.5,0,1.8,0.1,3.6,0.1C709.4,303.3,710.4,303.2,710.6,303.2z"/>
<path class="st0" d="M703.6,437.4c0-4.6-3.7-8.3-8.3-8.3s-8.3,3.7-8.3,8.3s3.7,8.3,8.3,8.3S703.6,442,703.6,437.4z M696.2,434.2v1.2
	h0c2.3,0.1,4,0.6,4,1.1c0,0.5-1.7,1-4,1.1v4h-2.1v-4c-2.3-0.1-4-0.6-4-1.1c0-0.5,1.7-1,4-1.1v-1.2h-2.8v-1.9h7.7v1.9H696.2z
	 M696.2,437.3L696.2,437.3L696.2,437.3c2-0.1,3.6-0.4,3.6-0.9s-1.5-0.8-3.6-0.9v1.4c-0.1,0-0.4,0-1,0c-0.5,0-0.9,0-1,0v-1.4
	c-2,0.1-3.6,0.4-3.6,0.9c0,0.4,1.5,0.8,3.6,0.9v0c0.1,0,0.5,0,1,0C695.9,437.4,696.2,437.3,696.2,437.3z"/>
<path class="st0" d="M259.6,247.5c0,6.5-5.3,11.8-11.8,11.8c-6.5,0-11.8-5.3-11.8-11.8c0-6.5,5.3-11.8,11.8-11.8
	C254.3,235.8,259.6,241,259.6,247.5z M248,241.3c-1.9,0-3.3,0.1-4.3,0.3h-0.1v13.8h3.1v-5c0.3,0.1,0.7,0.1,1.1,0.1
	c1.9,0,3.4-0.4,4.5-1.5c0.9-0.8,1.3-2,1.3-3.3s-0.6-2.5-1.5-3.2C251.3,241.6,249.9,241.3,248,241.3z M247.8,248
	c-0.4,0-0.8-0.1-1-0.1v-4.2c0.2-0.1,0.7-0.1,1.3-0.1c1.6,0,2.5,0.8,2.5,2.1C250.6,247.1,249.5,248,247.8,248z"/>
<path class="st0" d="M671.2,382c0,6.5-5.3,11.8-11.8,11.8c-6.5,0-11.8-5.3-11.8-11.8c0-6.5,5.3-11.8,11.8-11.8
	C665.9,370.2,671.2,375.5,671.2,382z M659.6,375.7c-1.9,0-3.3,0.1-4.3,0.3h-0.1v13.8h3.1v-5c0.3,0.1,0.7,0.1,1.1,0.1
	c1.9,0,3.4-0.4,4.5-1.5c0.9-0.8,1.3-2,1.3-3.3s-0.6-2.5-1.5-3.2C662.9,376.1,661.5,375.7,659.6,375.7z M659.5,382.4
	c-0.4,0-0.8-0.1-1-0.1v-4.2c0.2-0.1,0.7-0.1,1.3-0.1c1.6,0,2.5,0.8,2.5,2.1C662.2,381.5,661.2,382.4,659.5,382.4z"/>
<path class="st0" d="M967,437.4c0,6.5-5.3,11.8-11.8,11.8c-6.5,0-11.8-5.3-11.8-11.8s5.3-11.8,11.8-11.8
	C961.7,425.6,967,430.9,967,437.4z M955.4,431.1c-1.9,0-3.3,0.1-4.3,0.3h-0.1v13.8h3.1v-5c0.3,0.1,0.7,0.1,1.1,0.1
	c1.9,0,3.4-0.4,4.5-1.5c0.9-0.8,1.3-2,1.3-3.3c0-1.4-0.6-2.5-1.5-3.2C958.7,431.5,957.4,431.1,955.4,431.1z M955.3,437.8
	c-0.4,0-0.8-0.1-1-0.1v-4.2c0.2-0.1,0.7-0.1,1.3-0.1c1.6,0,2.5,0.8,2.5,2.1C958,437,957,437.8,955.3,437.8z"/>
<path class="st0" d="M55,282.9c0,8.9-7.2,16.2-16.2,16.2s-16.2-7.2-16.2-16.2c0-8.9,7.2-16.2,16.2-16.2S55,273.9,55,282.9z
	 M39,274.2c-2.6,0-4.5,0.1-5.9,0.4h-0.1v19h4.3v-6.9c0.5,0.1,0.9,0.1,1.5,0.1c2.6,0,4.7-0.6,6.2-2c1.2-1.1,1.8-2.7,1.8-4.6
	c0-1.9-0.8-3.5-2-4.4C43.6,274.7,41.7,274.2,39,274.2z M38.9,283.5c-0.6,0-1.1-0.1-1.4-0.2v-5.7c0.3-0.1,0.9-0.1,1.8-0.1
	c2.2,0,3.4,1.1,3.4,2.9C42.6,282.3,41.2,283.5,38.9,283.5z"/>
<path class="st0" d="M405.3,448.4c0,4.5-3.6,8.1-8.1,8.1s-8.1-3.6-8.1-8.1c0-4.5,3.6-8.1,8.1-8.1S405.3,444,405.3,448.4z
	 M397.3,444.1c-1.3,0-2.3,0.1-2.9,0.2h0v9.5h2.1v-3.4c0.2,0,0.5,0,0.8,0c1.3,0,2.4-0.3,3.1-1c0.6-0.6,0.9-1.4,0.9-2.3
	c0-0.9-0.4-1.7-1-2.2C399.6,444.4,398.6,444.1,397.3,444.1z M397.2,448.7c-0.3,0-0.5,0-0.7-0.1v-2.9c0.2,0,0.5-0.1,0.9-0.1
	c1.1,0,1.7,0.5,1.7,1.4C399.1,448.1,398.4,448.7,397.2,448.7z"/>
<path class="st0" d="M489.9,460.5c5.3,0,9.6-4.3,9.6-9.6c0-5.3-4.3-9.6-9.6-9.6c-5.3,0-9.6,4.3-9.6,9.6
	C480.3,456.2,484.6,460.5,489.9,460.5z M494,453.7h-4.8c0.4-0.4,0.8-0.8,1.2-1.3c1-1.1,1.9-2.2,2.8-3.3c0.1-0.1,0.2-0.2,0.3-0.3
	c0.2-0.3,0.5-0.5,0.6-0.8c0.1-0.5,0.1-1.1,0.1-1.6c0-0.2,0-0.5,0-0.7h-3v-2h-2.4v2H486v2.4h4.6c-0.2,0.2-0.4,0.4-0.5,0.6
	c-0.2,0.2-0.4,0.5-0.6,0.7c-1,1.1-1.9,2.2-2.8,3.3c-0.1,0.1-0.2,0.2-0.3,0.3c-0.2,0.2-0.5,0.5-0.5,0.8c-0.1,0.5-0.1,1.1-0.1,1.6
	c0,0.2,0,0.5,0,0.7h3v2h2.5c0-0.3,0-0.7-0.1-1c0-0.3,0-0.7-0.1-1h3V453.7z"/>
<path class="st0" d="M896.6,279.4c5.3,0,9.6-4.3,9.6-9.6c0-5.3-4.3-9.6-9.6-9.6c-5.3,0-9.6,4.3-9.6,9.6
	C887,275.2,891.3,279.4,896.6,279.4z M900.7,272.6h-4.8c0.4-0.4,0.8-0.8,1.2-1.3c1-1.1,1.9-2.2,2.8-3.3c0.1-0.1,0.2-0.2,0.3-0.3
	c0.2-0.3,0.5-0.5,0.6-0.8c0.1-0.5,0.1-1.1,0.1-1.6c0-0.2,0-0.5,0-0.7h-3v-2h-2.4v2h-2.7v2.4h4.6c-0.2,0.2-0.4,0.4-0.5,0.6
	c-0.2,0.2-0.4,0.5-0.6,0.7c-1,1.1-1.9,2.2-2.8,3.3c-0.1,0.1-0.2,0.2-0.3,0.3c-0.2,0.2-0.5,0.5-0.5,0.8c-0.1,0.5-0.1,1.1-0.1,1.6
	c0,0.2,0,0.5,0,0.7h3v2h2.5c0-0.3,0-0.7-0.1-1c0-0.3,0-0.7-0.1-1h3V272.6z"/>
<path class="st0" d="M778.4,317.7c5.3,0,9.6-4.3,9.6-9.6c0-5.3-4.3-9.6-9.6-9.6c-5.3,0-9.6,4.3-9.6,9.6
	C768.8,313.4,773.1,317.7,778.4,317.7z M782.5,310.9h-4.8c0.4-0.4,0.8-0.8,1.2-1.3c1-1.1,1.9-2.2,2.8-3.3c0.1-0.1,0.2-0.2,0.3-0.3
	c0.2-0.3,0.5-0.5,0.6-0.8c0.1-0.5,0.1-1.1,0.1-1.6c0-0.2,0-0.5,0-0.7h-3v-2h-2.4v2h-2.7v2.4h4.6c-0.2,0.2-0.4,0.4-0.5,0.6
	c-0.2,0.2-0.4,0.5-0.6,0.7c-1,1.1-1.9,2.2-2.8,3.3c-0.1,0.1-0.2,0.2-0.3,0.3c-0.2,0.2-0.5,0.5-0.5,0.8c-0.1,0.5-0.1,1.1-0.1,1.6
	c0,0.2,0,0.5,0,0.7h3v2h2.5c0-0.3,0-0.7-0.1-1c0-0.3,0-0.7-0.1-1h3V310.9z"/>
<path class="st1" d="M669.1,229l0.7,0.6l-8.5,5.1l-4.1-2.5l0.4-0.8l3.7,2.2L669.1,229z M667.3,227.9l0.9,0.5l-7,4.2l-3.3-1.9
	l0.5-0.7l2.7,1.6L667.3,227.9z M670.3,230.2l0.5,0.7l-9.6,5.7l-4.6-2.8l0.2-0.9l4.4,2.6L670.3,230.2z"/>
<path class="st1" d="M671.7,232.8c0.3,0.8,0.4,1.7,0.4,2.6c0,0.9-0.2,1.8-0.4,2.6l-0.2,0.6c-0.4,1-1,1.8-1.7,2.6
	c-0.7,0.8-1.6,1.3-2.5,1.7c-1,0.4-2,0.7-3.1,0.7c-1.1,0-2.1-0.2-3-0.7c-1-0.4-1.8-1-2.5-1.8c-0.7-0.8-1.3-1.6-1.7-2.6
	c-0.5-1-0.7-2.1-0.7-3.2v-0.6l4.8,2.9l10-6L671.7,232.8z"/>
<path class="st1" d="M280.5,432.4l0.9,0.8l-11.2,6.7l-5.4-3.3l0.5-1l4.9,2.9L280.5,432.4z M278.3,431l1.2,0.6l-9.2,5.5l-4.3-2.5
	l0.7-0.9l3.5,2.1L278.3,431z M282.2,434.1l0.7,0.9l-12.6,7.5l-6.1-3.6l0.3-1.2l5.8,3.5L282.2,434.1z"/>
<path class="st1" d="M284,437.5c0.4,1.1,0.6,2.2,0.6,3.4s-0.2,2.4-0.6,3.5l-0.3,0.7c-0.5,1.3-1.3,2.4-2.2,3.4c-1,1-2.1,1.7-3.3,2.3
	c-1.3,0.6-2.6,0.9-4,0.9s-2.7-0.3-4-0.9c-1.3-0.6-2.3-1.3-3.3-2.3c-1-1-1.7-2.1-2.2-3.4c-0.6-1.4-0.9-2.7-0.9-4.2v-0.7l6.3,3.8
	l13.2-7.9L284,437.5z"/>
<path class="st1" d="M479.9,286l2.1,1.9l-25.6,15.2l-12.4-7.4l1.2-2.4l11.2,6.7L479.9,286z M474.7,282.9l2.7,1.4l-21,12.6l-9.8-5.8
	l1.6-2.2l8.1,4.8L474.7,282.9z M483.6,289.8l1.5,2.2l-28.7,17.1l-13.9-8.3l0.6-2.6l13.3,7.9L483.6,289.8z"/>
<path class="st1" d="M487.9,297.6c0.8,2.5,1.3,5,1.3,7.8c0,2.8-0.5,5.4-1.3,7.9l-0.6,1.7c-1.2,2.9-2.9,5.5-5,7.8
	c-2.2,2.3-4.7,4-7.5,5.2c-3,1.3-6,2-9.2,2s-6.2-0.7-9.1-2c-2.9-1.3-5.3-3-7.5-5.3c-2.2-2.3-3.8-4.9-5-7.8c-1.4-3.1-2-6.2-2-9.6v-1.7
	l14.3,8.6l30.1-18L487.9,297.6z"/>
<path class="st1" d="M957.7,293.4l2.1,1.9l-25.9,15.4l-12.5-7.5l1.2-2.4l11.3,6.8L957.7,293.4z M952.4,290.2l2.7,1.5l-21.2,12.7
	l-9.9-5.8l1.6-2.2l8.2,4.8L952.4,290.2z M961.4,297.3l1.5,2.2l-29,17.3l-14-8.4l0.6-2.7l13.4,8L961.4,297.3z"/>
<path class="st1" d="M965.7,305.1c0.8,2.5,1.3,5.1,1.3,7.9s-0.5,5.4-1.3,8l-0.6,1.7c-1.2,2.9-2.9,5.6-5,7.9c-2.2,2.3-4.8,4-7.6,5.2
	c-3,1.3-6.1,2.1-9.3,2.1s-6.3-0.7-9.2-2.1c-2.9-1.3-5.4-3-7.6-5.3c-2.2-2.3-3.8-5-5-7.9c-1.4-3.1-2-6.3-2-9.7v-1.7l14.5,8.7
	l30.4-18.2L965.7,305.1z"/>
<path class="st1" d="M753.3,441.1l0.5,0.5l-6.1,3.6l-3-1.8l0.3-0.6l2.7,1.6L753.3,441.1z M752.1,440.4l0.6,0.3l-5,3l-2.4-1.4
	l0.4-0.5l1.9,1.1L752.1,440.4z M754.2,442l0.4,0.5l-6.9,4.1l-3.3-2l0.1-0.6l3.2,1.9L754.2,442z"/>
<path class="st1" d="M755.2,443.9c0.2,0.6,0.3,1.2,0.3,1.9s-0.1,1.3-0.3,1.9l-0.1,0.4c-0.3,0.7-0.7,1.3-1.2,1.9
	c-0.5,0.5-1.1,0.9-1.8,1.2c-0.7,0.3-1.4,0.5-2.2,0.5c-0.8,0-1.5-0.2-2.2-0.5c-0.7-0.3-1.3-0.7-1.8-1.3c-0.5-0.5-0.9-1.2-1.2-1.9
	c-0.3-0.7-0.5-1.5-0.5-2.3v-0.4l3.4,2.1l7.2-4.3L755.2,443.9z"/>
<path class="st1" d="M28.7,441.1l0.5,0.5l-6.1,3.6l-3-1.8l0.3-0.6l2.7,1.6L28.7,441.1z M27.5,440.4l0.6,0.3l-5,3l-2.4-1.4l0.4-0.5
	l1.9,1.1L27.5,440.4z M29.6,442l0.4,0.5l-6.9,4.1l-3.3-2l0.1-0.6l3.2,1.9L29.6,442z"/>
<path class="st1" d="M30.6,443.9c0.2,0.6,0.3,1.2,0.3,1.9s-0.1,1.3-0.3,1.9l-0.1,0.4c-0.3,0.7-0.7,1.3-1.2,1.9
	c-0.5,0.5-1.1,0.9-1.8,1.2c-0.7,0.3-1.4,0.5-2.2,0.5c-0.8,0-1.5-0.2-2.2-0.5c-0.7-0.3-1.3-0.7-1.8-1.3c-0.5-0.5-0.9-1.2-1.2-1.9
	c-0.3-0.7-0.5-1.5-0.5-2.3v-0.4l3.4,2.1l7.2-4.3L30.6,443.9z"/>
<path class="st1" d="M240.7,295.9l0.5,0.5L235,300l-3-1.8l0.3-0.6l2.7,1.6L240.7,295.9z M239.4,295.1l0.6,0.3l-5,3l-2.4-1.4l0.4-0.5
	l1.9,1.1L239.4,295.1z M241.6,296.8l0.4,0.5l-6.9,4.1l-3.3-2l0.1-0.6l3.2,1.9L241.6,296.8z"/>
<path class="st1" d="M242.6,298.7c0.2,0.6,0.3,1.2,0.3,1.9s-0.1,1.3-0.3,1.9l-0.1,0.4c-0.3,0.7-0.7,1.3-1.2,1.9
	c-0.5,0.5-1.1,0.9-1.8,1.2c-0.7,0.3-1.4,0.5-2.2,0.5c-0.8,0-1.5-0.2-2.2-0.5c-0.7-0.3-1.3-0.7-1.8-1.3c-0.5-0.5-0.9-1.2-1.2-1.9
	c-0.3-0.7-0.5-1.5-0.5-2.3v-0.4l3.4,2.1l7.2-4.3L242.6,298.7z"/>
<rect y="89.4" class="st3" width="967" height="320"/>
<path class="st4" d="M263,158.5c0,12.4-10.1,22.5-22.5,22.5c-12.4,0-22.5-10.1-22.5-22.5c0-12.4,10.1-22.5,22.5-22.5
	C252.9,136,263,146.1,263,158.5z M226.7,166.2c-0.2,0.3-0.8,0.4-1.7,0.5v0.4h6.5v-0.4c-0.9,0-1.5-0.2-1.8-0.4
	c-0.3-0.2-0.4-0.8-0.4-1.7v-4.2h1.8c1.8,0,3.2-0.3,4.4-1c1.2-0.7,1.8-1.9,1.8-3.5c0-1.3-0.5-2.3-1.6-3c-1-0.7-2.5-1.2-4.5-1.2h-6.2
	v0.4c0.7,0.1,1.4,0.3,1.6,0.5c0.3,0.2,0.4,0.7,0.4,1.6v10.1C227.1,165.3,226.9,165.9,226.7,166.2z M230.4,152.7c1,0,1.9,0.1,2.5,0.4
	c1.3,0.5,1.9,1.5,1.9,2.9c0,1.6-0.5,2.6-1.7,3.1c-0.6,0.3-1.5,0.4-2.5,0.4h-0.4c0,0-0.1,0-0.2,0c-0.2,0-0.4-0.1-0.7-0.1v-6.1
	c0-0.3,0.1-0.5,0.2-0.6C229.7,152.7,229.9,152.7,230.4,152.7L230.4,152.7z M239.8,166.1c-0.3,0.3-0.9,0.5-1.9,0.6v0.5h5.4v-0.4
	c-0.9-0.1-1.5-0.3-1.7-0.5c-0.3-0.4-0.5-1.3-0.5-2.5v-9.3l6,12.6h0.3l6-13.2v10.5c0,1-0.1,1.6-0.3,1.9c-0.2,0.3-0.8,0.4-1.8,0.5v0.4
	h6.5v-0.4c-0.8,0-1.4-0.1-1.7-0.4c-0.3-0.3-0.4-0.8-0.4-1.7v-10.4c0-0.7,0.2-1.4,0.4-1.6c0.2-0.2,0.8-0.3,1.7-0.4v-0.4h-4.6
	l-5.2,11.6l-5.3-11.6H238v0.4c0.9,0,1.5,0.2,1.8,0.4c0.3,0.3,0.4,0.8,0.4,1.7v9.4C240.2,164.9,240.1,165.8,239.8,166.1z"/>
<path class="st5" d="M904,215c14.9,0,27-12.1,27-27s-12.1-27-27-27s-27,12.1-27,27S889.1,215,904,215z M903.8,179.3
	c0-2.2,1.1-4.3,3.1-5.5h0c0.9-0.6,2-0.8,3-0.8c1,0,2.1,0.2,3.1,0.8c1.9,1.2,3.1,3.2,3.1,5.5s-1.1,4.3-3.1,5.5
	c-1,0.6-2.3,0.8-3.4,0.8c-1.4,0-2.4,1-2.4,2.4c0,1.7,1.4,2.4,2.4,2.4c1.2,0,2.4,0.2,3.4,0.8c1.9,1.2,3.1,3.3,3.1,5.5
	s-1.1,4.3-3.1,5.5c-1.9,1.2-4.2,1.2-6.1,0c-1.9-1.2-3.1-3.2-3.1-5.5c0-1.2,0.3-2.3,0.9-3.4c0.6-1.2,0.2-2.7-0.9-3.4
	c-1.6-0.9-2.8,0.1-3.3,0.9c-0.6,1-1.4,2-2.4,2.6c-1.9,1.2-4.2,1.2-6.1,0c-1.9-1.2-3-3.3-3-5.5c0-2.2,1.1-4.3,3.1-5.5
	c1.9-1.2,4.2-1.2,6.1,0c1,0.7,1.8,1.6,2.5,2.6c0.7,1.2,2.1,1.6,3.3,0.9c1.6-0.8,1.4-2.4,0.9-3.4
	C904.2,181.6,903.8,180.4,903.8,179.3z"/>
<path class="st6" d="M298.5,394c9.1,0,16.5-7.4,16.5-16.5s-7.4-16.5-16.5-16.5s-16.5,7.4-16.5,16.5S289.4,394,298.5,394z
	 M298.4,372.2c0-1.3,0.7-2.6,1.9-3.3l0,0c0.5-0.4,1.2-0.5,1.9-0.5c0.6,0,1.3,0.1,1.9,0.5c1.2,0.7,1.9,2,1.9,3.3
	c0,1.3-0.7,2.6-1.9,3.3c-0.6,0.4-1.4,0.5-2.1,0.5c-0.8,0-1.4,0.6-1.4,1.5c0,1.1,0.8,1.5,1.4,1.5c0.8,0,1.4,0.1,2.1,0.5
	c1.2,0.7,1.9,2,1.9,3.3c0,1.3-0.7,2.6-1.9,3.3c-1.2,0.7-2.6,0.7-3.7,0c-1.2-0.7-1.9-2-1.9-3.3c0-0.7,0.2-1.4,0.6-2.1
	c0.3-0.7,0.1-1.6-0.6-2.1c-1-0.6-1.7,0.1-2,0.6c-0.3,0.6-0.8,1.2-1.4,1.6c-1.2,0.7-2.6,0.7-3.7,0c-1.2-0.7-1.9-2-1.9-3.3
	s0.7-2.6,1.9-3.3c1.2-0.7,2.6-0.7,3.7,0c0.6,0.4,1.1,1,1.5,1.6c0.4,0.7,1.3,1,2,0.6c1-0.5,0.8-1.5,0.6-2.1
	C298.7,373.6,298.4,372.9,298.4,372.2z"/>
<path class="st7" d="M46.5,197C30.2,197,17,210.4,17,227c0,16.6,13.2,30,29.5,30c16.3,0,29.5-13.4,29.5-30
	C76,210.4,62.8,197,46.5,197z M58,241.6h-23l1.9-9.4l-3.8,2.6l0.9-5.1l3.9-2.8l3.9-18.8H49l-2.7,12.9l9.4-6.6l-1.1,5.3l-9.4,6.5
	l-1.9,9h15.9L58,241.6z"/>
<path class="st8" d="M352.5,246.9c0.9-2.8,1.5-5.8,1.5-8.9c0-15.5-12.5-28-28-28s-28,12.5-28,28c0,3.1,0.5,6.1,1.5,8.9h8.5v-23.5
	l18.1,17.9l18.1-17.9v23.5H352.5z M349.6,253h-11.8v-14.9L326,250l-11.8-11.8V253h-11.8c5,7.8,13.7,13,23.6,13
	S344.7,260.8,349.6,253z"/>
<path class="st9" d="M652,335.5c0,26.2-21.3,47.5-47.5,47.5S557,361.7,557,335.5c0-26.2,21.3-47.5,47.5-47.5S652,309.2,652,335.5z
	 M615,316.7c6.5,2.4,11.3,5.6,10.4,12c-0.7,4.7-3.3,7-6.2,7.4c4.6,2.4,7,6.1,4.8,12.6c-2.8,8-9.5,8.6-18.4,7l-2.2,8.6l-5.2-1.3
	l2.1-8.5c-1.3-0.3-2.7-0.6-4.2-1l-2.1,8.6l-5.2-1.3l2.2-8.6c-1.2-0.3-2.4-0.6-3.7-0.9l-6.8-1.6l2.5-5.9c0,0,3.9,1,3.9,0.9
	c1.5,0.4,2.1-0.6,2.4-1.2l3.4-13.6l2.4-9.8c0.1-1-0.3-2.4-2.4-3l-3.9-0.9l1.3-5.6l7.1,1.8c0.6,0.2,1.2,0.3,1.8,0.4
	c0.5,0.1,1,0.2,1.5,0.3l2.1-8.6l5.2,1.3l-2.1,8.5c1.1,0.4,2.4,0.6,3.5,0.9c0.2,0,0.4,0.1,0.6,0.1l2.1-8.3l5.2,1.2L615,316.7z
	 M598.6,347.8c4.3,1.1,13.5,3.6,15-2.4c1.5-6-7.5-8.1-12-9.1c-0.5-0.1-0.9-0.2-1.3-0.3l-2.8,11.4
	C597.8,347.6,598.2,347.7,598.6,347.8z M602.5,331.2c3.5,0.9,11.3,3,12.7-2.4c1.4-5.8-6.8-7.4-10.3-8c-0.2,0-0.5-0.1-0.7-0.1
	l-2.5,10.4C601.9,331,602.2,331.1,602.5,331.2z"/>
<path class="st10" d="M591,166c0,13.3-10.8,24-24,24c-13.3,0-24-10.7-24-24s10.8-24,24-24C580.3,142,591,152.7,591,166z
	 M572.3,156.5c3.3,1.2,5.7,2.8,5.3,6.1c-0.4,2.4-1.7,3.5-3.2,3.8c2.3,1.2,3.5,3.1,2.4,6.4c-1.4,4.1-4.8,4.4-9.3,3.5l-1.1,4.4
	l-2.6-0.7l1.1-4.3c-0.7-0.2-1.4-0.3-2.1-0.5l-1.1,4.4l-2.6-0.7l1.1-4.3c-0.6-0.2-1.2-0.3-1.9-0.5l-3.5-0.8l1.3-3c0,0,2,0.5,2,0.4
	c0.8,0.2,1.1-0.3,1.2-0.6l1.7-6.9l1.2-4.9c0.1-0.5-0.2-1.2-1.2-1.5l-2-0.4l0.7-2.9l3.6,0.9c0.3,0.1,0.6,0.1,0.9,0.2
	c0.2,0.1,0.5,0.1,0.8,0.2l1.1-4.4l2.6,0.7l-1.1,4.3c0.6,0.2,1.2,0.3,1.8,0.5c0.1,0,0.2,0,0.3,0.1l1.1-4.2l2.6,0.6L572.3,156.5z
	 M564,172.3c2.2,0.6,6.8,1.8,7.6-1.2c0.7-3-3.8-4.1-6-4.6c-0.2-0.1-0.5-0.1-0.6-0.1l-1.4,5.8C563.6,172.2,563.8,172.2,564,172.3z
	 M566,163.8c1.8,0.5,5.7,1.5,6.4-1.2c0.7-2.9-3.4-3.7-5.2-4.1c-0.1,0-0.2,0-0.3-0.1l-1.3,5.2C565.7,163.7,565.8,163.8,566,163.8z"/>
<path class="st11" d="M684,242c0,11-9,20-20,20s-20-9-20-20s9-20,20-20S684,231,684,242z M660.7,236.9c-0.7,0-1.5,0-2.2,0
	c0-0.2,0.6-3.3,0.6-3.6h6.4c0.1,0,0.1,0,0.2,0c1.9,0,3.8,0,5.5,0.7c1.5,0.6,2.5,1.7,3,3.4c0.4,1.8,0.2,4-0.2,5.7
	c-0.8,3.3-2.4,5.9-5.7,7.1c-1.6,0.6-3.4,0.6-5.2,0.6c-0.2,0-0.4,0-0.6,0h-0.1c-2.1,0-4.2,0-6.3,0l0.6-3.6c0.7,0,1.5,0,2.2,0
	c0.7,0,1.5,0,2.2,0c0.3,0,0.6,0,1,0c2,0,4,0.1,5.7-1c1.1-0.8,1.6-2.1,1.9-3.5c0.7-3,0.5-5.1-2.6-5.5c-1-0.2-2.2-0.1-3.3-0.1
	c-0.3,0-0.7,0-1,0C662.2,236.9,661.5,236.9,660.7,236.9z M659.4,243.8c-1.9,0-6.2,0-6.5,0c0.1-0.6,0.5-2.3,0.8-2.8
	c0.6-0.9,1.6-0.9,2.6-0.9c0.1,0,0.1,0,0.2,0h7.3c-0.1,0.4-0.2,0.9-0.3,1.3c0,0.1,0,0.1,0,0.2c-0.5,1.9-1.2,2.1-3.3,2.1
	C660.1,243.8,659.8,243.8,659.4,243.8z"/>
</svg>
