<svg width="40" height="40" viewBox="0 0 40 40" fill="none" xmlns="http://www.w3.org/2000/svg">
<circle cx="20" cy="20" r="20" fill="black"/>
<path d="M24.4198 24.7529C23.4135 24.7529 22.5948 23.9342 22.5948 22.928V19.8972C22.5948 18.8909 23.4135 18.0723 24.4198 18.0723H29.175C29.2038 18.0723 29.2325 18.0731 29.261 18.0744V15.0553C29.261 14.2781 28.6309 13.6481 27.8538 13.6481H10.4072C9.63 13.6481 9 14.2781 9 15.0552V27.7699C9 28.547 9.63 29.1771 10.4072 29.1771H27.8538C28.6309 29.1771 29.261 28.5471 29.261 27.7699V24.7507C29.2325 24.7521 29.2038 24.7529 29.175 24.7529H24.4198Z" fill="white"/>
<path d="M29.174 19.0722H24.4187C23.9631 19.0722 23.5938 19.4416 23.5938 19.8972V22.9279C23.5938 23.3835 23.9631 23.7529 24.4187 23.7529H29.174C29.6296 23.7529 29.9989 23.3836 29.9989 22.9279V19.8972C29.9989 19.4415 29.6296 19.0722 29.174 19.0722ZM26.0573 22.6032C25.3997 22.6032 24.8666 22.0701 24.8666 21.4125C24.8666 20.7549 25.3997 20.2218 26.0573 20.2218C26.7149 20.2218 27.248 20.7549 27.248 21.4125C27.248 22.0701 26.7149 22.6032 26.0573 22.6032Z" fill="white"/>
<path d="M25.4031 11.0705C25.0883 10.1176 24.0606 9.60037 23.1078 9.91519L15.959 12.277H25.8017L25.4031 11.0705Z" fill="white"/>
</svg>
