<svg width="40" height="40" viewBox="0 0 40 40" fill="none" xmlns="http://www.w3.org/2000/svg">
<circle cx="20" cy="20" r="20" fill="black"/>
<path d="M26.0006 14C22.8848 14 20.5566 15.2317 20.5566 16.333C20.5566 17.4343 22.8848 18.666 26.0006 18.666C29.1164 18.666 31.4444 17.4343 31.4444 16.333C31.4444 15.2317 29.1163 14 26.0006 14Z" fill="white"/>
<path d="M30.7477 25.451C29.4667 26.0916 27.7808 26.4444 26.0006 26.4444C24.2203 26.4444 22.5343 26.0916 21.2533 25.451C21.001 25.3248 20.7688 25.1894 20.5566 25.046V25.667C20.5566 26.7683 22.8848 28 26.0006 28C29.1164 28 31.4444 26.7683 31.4444 25.667V25.046C31.2322 25.1894 31 25.3248 30.7477 25.451Z" fill="white"/>
<path d="M30.7477 22.3397C29.4667 22.9803 27.7808 23.3331 26.0006 23.3331C24.2203 23.3331 22.5343 22.9803 21.2533 22.3397C21.001 22.2135 20.7688 22.0781 20.5566 21.9347V22.5556C20.5566 23.6569 22.8848 24.8887 26.0006 24.8887C29.1164 24.8887 31.4444 23.6569 31.4444 22.5556V21.9346C31.2322 22.078 31 22.2135 30.7477 22.3397Z" fill="white"/>
<path d="M30.7477 19.2285C29.4667 19.8689 27.7808 20.2217 26.0006 20.2217C24.2203 20.2217 22.5343 19.8689 21.2533 19.2284C21.001 19.1022 20.7688 18.9668 20.5566 18.8234V19.4443C20.5566 20.5456 22.8848 21.7774 26.0006 21.7774C29.1164 21.7774 31.4444 20.5456 31.4444 19.4443V18.8233C31.2322 18.9668 31 19.1023 30.7477 19.2285Z" fill="white"/>
<path d="M14.0006 17C10.8848 17 8.55664 18.2317 8.55664 19.333C8.55664 20.4343 10.8848 21.666 14.0006 21.666C17.1164 21.666 19.4444 20.4343 19.4444 19.333C19.4444 18.2317 17.1163 17 14.0006 17Z" fill="white"/>
<path d="M18.7477 25.3397C17.4667 25.9803 15.7808 26.3331 14.0006 26.3331C12.2203 26.3331 10.5343 25.9803 9.25325 25.3397C9.00098 25.2135 8.76883 25.0781 8.55664 24.9347V25.5556C8.55664 26.6569 10.8848 27.8887 14.0006 27.8887C17.1164 27.8887 19.4444 26.6569 19.4444 25.5556V24.9346C19.2322 25.078 19 25.2135 18.7477 25.3397Z" fill="white"/>
<path d="M18.7477 22.2285C17.4667 22.8689 15.7808 23.2217 14.0006 23.2217C12.2203 23.2217 10.5343 22.8689 9.25325 22.2284C9.00098 22.1022 8.76883 21.9668 8.55664 21.8234V22.4443C8.55664 23.5456 10.8848 24.7774 14.0006 24.7774C17.1164 24.7774 19.4444 23.5456 19.4444 22.4443V21.8233C19.2322 21.9668 19 22.1023 18.7477 22.2285Z" fill="white"/>
</svg>
