<svg width="100" height="100" viewBox="0 0 100 100" fill="none" xmlns="http://www.w3.org/2000/svg">
<circle cx="50" cy="50" r="50" fill="black"/>
<path d="M30.3086 52.1221C30.3086 55.387 29.5726 57.9049 28.1006 59.6758C26.6396 61.4466 24.5755 62.332 21.9082 62.332C19.2188 62.332 17.138 61.4411 15.666 59.6592C14.194 57.8773 13.458 55.3649 13.458 52.1221V47.7061C13.458 44.4411 14.1885 41.9232 15.6494 40.1523C17.1214 38.3815 19.1966 37.4961 21.875 37.4961C24.5534 37.4961 26.6286 38.387 28.1006 40.1689C29.5726 41.9508 30.3086 44.4688 30.3086 47.7227V52.1221ZM24.7139 46.9922C24.7139 45.2546 24.487 43.9596 24.0332 43.1074C23.5794 42.2441 22.86 41.8125 21.875 41.8125C20.9121 41.8125 20.2093 42.2109 19.7666 43.0078C19.335 43.8047 19.1025 45.0111 19.0693 46.627V52.8027C19.0693 54.6068 19.2962 55.9294 19.75 56.7705C20.2038 57.6006 20.9232 58.0156 21.9082 58.0156C22.86 58.0156 23.5628 57.6117 24.0166 56.8037C24.4704 55.9847 24.7028 54.7064 24.7139 52.9688V46.9922ZM36.7666 56.5713C37.652 56.5713 38.388 56.8369 38.9746 57.3682C39.5612 57.8883 39.8545 58.5579 39.8545 59.377C39.8545 60.196 39.5612 60.8711 38.9746 61.4023C38.388 61.9225 37.652 62.1826 36.7666 62.1826C35.8701 62.1826 35.1286 61.917 34.542 61.3857C33.9665 60.8545 33.6787 60.1849 33.6787 59.377C33.6787 58.569 33.9665 57.8994 34.542 57.3682C35.1286 56.8369 35.8701 56.5713 36.7666 56.5713ZM54.5303 52.6533C53.3239 53.738 51.9736 54.2803 50.4795 54.2803C48.2881 54.2803 46.5505 53.5387 45.2666 52.0557C43.9827 50.5726 43.3408 48.5915 43.3408 46.1123C43.3408 44.5628 43.7005 43.124 44.4199 41.7959C45.1393 40.4678 46.1465 39.4163 47.4414 38.6416C48.7474 37.8669 50.1862 37.4795 51.7578 37.4795C53.3516 37.4795 54.7904 37.8835 56.0742 38.6914C57.3691 39.4883 58.3763 40.6227 59.0957 42.0947C59.8151 43.5557 60.1859 45.2435 60.208 47.1582V49.2998C60.208 51.9671 59.6823 54.2803 58.6309 56.2393C57.5905 58.1982 56.1019 59.7035 54.165 60.7549C52.2282 61.8063 49.9704 62.332 47.3916 62.332H47.043V57.8496L48.1055 57.833C51.957 57.6449 54.0986 55.9183 54.5303 52.6533ZM51.9902 50.2461C53.2077 50.2461 54.082 49.7204 54.6133 48.6689V46.3447C54.6133 44.7952 54.3532 43.6497 53.833 42.9082C53.3128 42.1667 52.61 41.7959 51.7246 41.7959C50.9388 41.7959 50.2803 42.2165 49.749 43.0576C49.2178 43.8988 48.9521 44.917 48.9521 46.1123C48.9521 47.374 49.2233 48.3812 49.7656 49.1338C50.3079 49.8753 51.0495 50.2461 51.9902 50.2461ZM63.2129 42.4766C63.2129 40.9824 63.6999 39.776 64.6738 38.8574C65.6478 37.9388 66.9538 37.4795 68.5918 37.4795C70.252 37.4795 71.5635 37.9388 72.5264 38.8574C73.4893 39.765 73.9707 40.999 73.9707 42.5596V43.7549C73.9707 45.249 73.4893 46.4499 72.5264 47.3574C71.5635 48.265 70.263 48.7188 68.625 48.7188C66.998 48.7188 65.6865 48.2705 64.6904 47.374C63.7054 46.4665 63.2129 45.2269 63.2129 43.6553V42.4766ZM66.8154 43.7549C66.8154 44.3304 66.9759 44.8008 67.2969 45.166C67.6178 45.5202 68.0605 45.6973 68.625 45.6973C69.7871 45.6973 70.3682 44.9557 70.3682 43.4727V42.4766C70.3682 41.901 70.2132 41.4307 69.9033 41.0654C69.5934 40.6891 69.1562 40.501 68.5918 40.501C68.0495 40.501 67.6178 40.6836 67.2969 41.0488C66.9759 41.403 66.8154 41.89 66.8154 42.5098V43.7549ZM74.7012 56.0732C74.7012 54.568 75.1882 53.3617 76.1621 52.4541C77.1471 51.5465 78.4531 51.0928 80.0801 51.0928C81.7292 51.0928 83.0407 51.541 84.0146 52.4375C84.9886 53.334 85.4756 54.5846 85.4756 56.1895V57.3516C85.4756 58.8568 84.9941 60.0632 84.0312 60.9707C83.0684 61.8783 81.7624 62.332 80.1133 62.332C78.4863 62.332 77.1748 61.8838 76.1787 60.9873C75.1937 60.0798 74.7012 58.8402 74.7012 57.2686V56.0732ZM78.2871 57.3516C78.2871 57.8717 78.4642 58.3311 78.8184 58.7295C79.1725 59.1169 79.6042 59.3105 80.1133 59.3105C81.1868 59.3105 81.7679 58.8014 81.8564 57.7832L81.873 56.0732C81.873 55.4867 81.7126 55.0163 81.3916 54.6621C81.0706 54.2969 80.6335 54.1143 80.0801 54.1143C79.5488 54.1143 79.1227 54.2858 78.8018 54.6289C78.4808 54.9609 78.3092 55.4147 78.2871 55.9902V57.3516ZM69.6875 60.1904L67.0811 58.8789L78.8848 39.9863L81.4912 41.2979L69.6875 60.1904Z" fill="#FCE21D"/>
</svg>
