<svg width="50" height="50" viewBox="0 0 42 42" fill="none" xmlns="http://www.w3.org/2000/svg">
<rect width="42" height="42" rx="6" fill="#F3C41F"/>
<path d="M31 19.3633C31 20.5963 30.8028 21.7266 30.4085 22.7541C30.0141 23.7731 29.4568 24.5737 28.7367 25.156C28.0165 25.7382 27.1806 26.0294 26.229 26.0294C25.5946 26.0294 25.0331 25.8795 24.5444 25.5798C24.0557 25.2716 23.7042 24.8691 23.4899 24.3725H23.2841C22.3582 25.4771 21.1794 26.0294 19.7477 26.0294C18.2303 26.0294 17.0343 25.5755 16.1598 24.6679C15.2854 23.7517 14.8481 22.5015 14.8481 20.9174C14.8481 19.1107 15.4225 17.655 16.5713 16.5505C17.7201 15.4459 19.2205 14.8936 21.0723 14.8936C21.8096 14.8936 22.6197 14.9664 23.5028 15.1119C24.3944 15.2489 25.1274 15.4159 25.7018 15.6128L25.406 21.8936C25.406 23.0838 25.7318 23.6789 26.3833 23.6789C26.932 23.6789 27.3693 23.2807 27.695 22.4844C28.0208 21.6795 28.1837 20.6306 28.1837 19.3376C28.1837 17.959 27.8965 16.7431 27.3221 15.6899C26.7477 14.6281 25.9375 13.819 24.8916 13.2624C23.8543 12.7058 22.6669 12.4275 21.3295 12.4275C19.5977 12.4275 18.0931 12.7829 16.8157 13.4936C15.5383 14.2043 14.5566 15.2318 13.8708 16.5761C13.1935 17.9119 12.8549 19.4575 12.8549 21.2128C12.8549 23.5761 13.485 25.3914 14.7453 26.6587C16.0141 27.9174 17.8487 28.5468 20.2492 28.5468C21.158 28.5468 22.1568 28.4483 23.2456 28.2514C24.3344 28.0459 25.406 27.7505 26.4605 27.3651V29.8312C24.6258 30.6104 22.5897 31 20.3521 31C17.0943 31 14.5524 30.1437 12.7263 28.4312C10.9088 26.7187 10 24.3382 10 21.2899C10 19.1749 10.463 17.2569 11.3889 15.5358C12.3233 13.8061 13.6479 12.4532 15.3625 11.4771C17.0857 10.4924 19.0661 10 21.3037 10C23.1898 10 24.8745 10.3853 26.3576 11.156C27.8408 11.9266 28.9853 13.0226 29.7912 14.444C30.5971 15.8654 31 17.5052 31 19.3633ZM17.8316 20.9688C17.8316 22.7755 18.5689 23.6789 20.0435 23.6789C20.8151 23.6789 21.4023 23.4092 21.8053 22.8697C22.2082 22.3217 22.4525 21.4355 22.5383 20.211L22.7055 17.3725C22.2682 17.2783 21.7753 17.2312 21.2266 17.2312C20.1549 17.2312 19.319 17.5651 18.7189 18.233C18.1274 18.9009 17.8316 19.8128 17.8316 20.9688Z" fill="white"/>
</svg>
