<svg width="50" height="50" viewBox="0 0 42 42" fill="none" xmlns="http://www.w3.org/2000/svg">
<rect width="42" height="42" rx="6" fill="#5082B9"/>
<path d="M30.8886 26.9342C30.8632 26.8839 30.8395 26.8422 30.8175 26.8087C30.4531 26.2063 29.7569 25.4668 28.7291 24.5901L28.7074 24.57L28.6965 24.5602L28.6855 24.5501H28.6745C28.2081 24.1419 27.9127 23.8674 27.789 23.7268C27.5627 23.4591 27.5119 23.1882 27.6356 22.9136C27.723 22.7062 28.0513 22.2681 28.6197 21.5988C28.9187 21.244 29.1555 20.9598 29.3303 20.7456C30.5914 19.2063 31.1382 18.2227 30.9705 17.7943L30.9053 17.6942C30.8616 17.634 30.7486 17.5788 30.5666 17.5286C30.3841 17.4784 30.1509 17.4701 29.8666 17.5035L26.7177 17.5235C26.6667 17.5069 26.5939 17.5085 26.499 17.5286C26.4042 17.5487 26.3568 17.5588 26.3568 17.5588L26.302 17.5839L26.2585 17.6141C26.222 17.6341 26.1819 17.6692 26.1382 17.7194C26.0946 17.7694 26.0582 17.8282 26.0291 17.8951C25.6863 18.7048 25.2965 19.4577 24.859 20.1536C24.5893 20.5686 24.3416 20.9282 24.1154 21.2328C23.8895 21.5372 23.7 21.7615 23.547 21.9052C23.3938 22.0491 23.2556 22.1644 23.1314 22.2515C23.0075 22.3386 22.9128 22.3754 22.8473 22.362C22.7816 22.3485 22.7198 22.3351 22.6612 22.3218C22.5592 22.2615 22.4772 22.1796 22.4154 22.0758C22.3532 21.9721 22.3114 21.8416 22.2896 21.6843C22.2678 21.5269 22.2549 21.3916 22.2513 21.2778C22.2478 21.1641 22.2494 21.0033 22.2568 20.7959C22.2644 20.5883 22.2678 20.4479 22.2678 20.3743C22.2678 20.1199 22.2732 19.8439 22.284 19.5461C22.2951 19.2483 22.304 19.0124 22.3115 18.8385C22.3189 18.6645 22.3223 18.4804 22.3223 18.2864C22.3223 18.0923 22.3095 17.9401 22.284 17.8296C22.2589 17.7193 22.2204 17.6122 22.1695 17.5084C22.1184 17.4046 22.0436 17.3244 21.9454 17.2674C21.847 17.2106 21.7247 17.1654 21.5791 17.1319C21.1928 17.0516 20.7008 17.0082 20.1029 17.0014C18.7472 16.9881 17.8761 17.0684 17.4898 17.2424C17.3367 17.316 17.1982 17.4164 17.0743 17.5435C16.9431 17.6908 16.9248 17.7711 17.0195 17.7844C17.4569 17.8445 17.7666 17.9884 17.9488 18.2159L18.0145 18.3365C18.0656 18.4235 18.1166 18.5775 18.1677 18.7983C18.2186 19.0191 18.2515 19.2633 18.266 19.5309C18.3024 20.0195 18.3024 20.4377 18.266 20.7857C18.2295 21.1338 18.1951 21.4047 18.1622 21.5988C18.1293 21.7929 18.0801 21.9502 18.0145 22.0706C17.9488 22.191 17.9052 22.2646 17.8832 22.2914C17.8614 22.3181 17.8431 22.3349 17.8287 22.3415C17.7339 22.3749 17.6354 22.3919 17.5334 22.3919C17.4313 22.3919 17.3074 22.345 17.1617 22.2512C17.016 22.1575 16.8647 22.0287 16.708 21.8647C16.5512 21.7007 16.3745 21.4715 16.1776 21.1771C15.9809 20.8827 15.7767 20.5347 15.5653 20.1332L15.3904 19.842C15.2811 19.6547 15.1317 19.3819 14.9422 19.024C14.7526 18.6659 14.585 18.3195 14.4392 17.9849C14.381 17.8443 14.2935 17.7373 14.1769 17.6637L14.1222 17.6335C14.0858 17.6068 14.0274 17.5784 13.9473 17.5482C13.867 17.518 13.7833 17.4963 13.6958 17.483L10.6999 17.503C10.3938 17.503 10.186 17.5666 10.0767 17.6938L10.0329 17.754C10.011 17.7875 10 17.841 10 17.9147C10 17.9883 10.0219 18.0786 10.0656 18.1856C10.503 19.1293 10.9786 20.0394 11.4924 20.916C12.0063 21.7927 12.4528 22.4989 12.8318 23.0339C13.2108 23.5694 13.5971 24.0747 13.9908 24.5497C14.3844 25.0249 14.645 25.3294 14.7725 25.4632C14.9001 25.5972 15.0004 25.6974 15.0732 25.7643L15.3466 26.0052C15.5216 26.1658 15.7785 26.3582 16.1174 26.5824C16.4564 26.8067 16.8318 27.0274 17.2436 27.2451C17.6555 27.4624 18.1347 27.6398 18.6815 27.7769C19.2282 27.9142 19.7603 27.9693 20.2778 27.9427H21.5352C21.7902 27.9225 21.9835 27.8489 22.1148 27.7218L22.1583 27.6715C22.1875 27.6316 22.2149 27.5695 22.2402 27.486C22.2658 27.4024 22.2785 27.3102 22.2785 27.21C22.271 26.9223 22.2949 26.663 22.3494 26.4321C22.4039 26.2014 22.466 26.0273 22.5355 25.9102C22.6049 25.7931 22.6833 25.6943 22.7705 25.6142C22.8579 25.5339 22.9201 25.4853 22.9567 25.4686C22.993 25.4517 23.022 25.4403 23.0438 25.4334C23.2188 25.3799 23.4246 25.4318 23.6618 25.5892C23.8987 25.7464 24.1209 25.9406 24.3288 26.1714C24.5366 26.4024 24.7862 26.6615 25.0777 26.9493C25.3694 27.2371 25.6245 27.451 25.843 27.5918L26.0616 27.7122C26.2076 27.7926 26.3972 27.8662 26.6304 27.9331C26.8633 28 27.0674 28.0167 27.2426 27.9833L30.0415 27.9432C30.3184 27.9432 30.5338 27.9011 30.6866 27.8176C30.8397 27.734 30.9306 27.6418 30.96 27.5416C30.9892 27.4412 30.9908 27.3274 30.9655 27.2001C30.9396 27.0732 30.9141 26.9844 30.8886 26.9342Z" fill="white"/>
</svg>
